<svg id="图层_1" xmlns="http://www.w3.org/2000/svg" viewBox="0 0 32 32" width="32" height="32"><style>.st0{fill-rule:evenodd;clip-rule:evenodd;fill:url(#XMLID_26_)}</style><g id="XMLID_2_"><g id="XMLID_79_"><linearGradient id="XMLID_26_" gradientUnits="userSpaceOnUse" x1="23.147" y1="29.065" x2="6.853" y2=".842" gradientTransform="translate(1 1.046)"><stop offset="0" stop-color="#0063ff"/><stop offset="1" stop-color="#00c8de"/></linearGradient><path id="XMLID_80_" class="st0" d="M29 5H3c-1.1 0-2 .9-2 2v18c0 1.1.9 2 2 2h26c1.1 0 2-.9 2-2V7c0-1.1-.9-2-2-2zM5 7h22c.5 0 .9.1 1.2.2L16 16.9 3.8 7.2c.3-.1.7-.2 1.2-.2zm22 18H5c-2.1 0-2-.9-2-2V9.1l13 10.3L29 9.1V23c0 1.1 0 2-2 2z"/></g></g></svg>