<svg id="图层_1" xmlns="http://www.w3.org/2000/svg" viewBox="0 0 180 48" width="180" height="48"><style>.st0{fill:#00a3ff}.st1{fill:#00c8dc}.st2{fill:#006eff}</style><g id="XMLID_18_"><g id="XMLID_25_"><path id="XMLID_38_" d="M142.5 8.1h-19.6V11h5.9v10.4H122v2.8h6.8v17.4h3.1V24.2h7.5v17h5.9v-2.8h-2.8V8.1zm-10.6 13.2V11h7.5v10.4h-7.5z"/><path id="XMLID_14_" d="M88 33.6h15.5v2.8H88z"/><path id="XMLID_33_" d="M77.5 28.3c0 5.2-.4 9.1-1.3 12.6-.1.3 0 .4.2.4h2.8c1-4.8 1.1-8.7 1.1-11.6h4v8.8h-2.8c-.1 0-.2.1-.2.3l.8 2.6h5.1V8.2h-9.7v20.1zm2.8-1.2v-6.8h4v6.8h-4zm4-16.1v6.7h-4V11h4z"/><path id="XMLID_30_" d="M104.6 19.7h3.8v-2.6H97.3c.3-.8.6-1.7.9-2.6h9.5V12H105c.5-1.6 1-3.4 1-3.6.1-.2 0-.3-.2-.3h-2.4l-1.1 3.8h-3.4c.3-1.5.6-3.1.8-5 0-.2-.1-.3-.2-.3h-2.8c-.3 2-.6 3.6-1 5.2H94l-1-3.6h-2.4c-.1 0-.2.1-.2.3 0 .1.6 2 1 3.6h-2.7v2.6H95c-.3.8-.6 1.8-1 2.6h-6v2.6h4.5c-1.8 2.6-3.8 3.8-4.5 4.2V27c0 .1.1.3.6 0 .8-.5 1.7-1 2.6-1.7h10.6l-.1 3.8h-8.4l.1-2.3c0-.1-.1-.2-.2-.2h-2.7l-.3 4.8c0 .1.1.2.2.2h14.4v6.9h-6.5c-.1 0-.2.1-.2.3l.8 2.6h9V29.1h-3.5l.1-5c1.3 1.2 2.7 2.1 3.9 2.8.5.3.6.1.6 0V24c-.6-.5-2.6-1.7-4.4-4.3zm-3.4 0c.7 1.1 1.4 2.1 2.2 3H94c.7-.8 1.4-1.8 2.1-3h5.1z"/><path id="XMLID_8_" d="M124.8 31.6c-.1 0-2.7 2-5.3 4V17.1h-7.3v3.1h4.2V38c-1 .8-1.7 1.3-1.7 1.3l1.7 2.3 8.6-6.5v-3.2c.1-.3 0-.4-.2-.3z"/><path id="XMLID_7_" d="M116.9 14.4h3.4c.2 0 .2-.2.1-.3-.1-.1-4.3-6.6-4.3-6.6h-3.4c-.1 0-.2.1-.2.3.1.1 4.4 6.6 4.4 6.6z"/><path id="XMLID_6_" d="M151.9 8.9h24.7V12h-24.7z"/><path id="XMLID_5_" d="M160.8 23.8H180v-3.1h-31.6v3.1h8.8c-1.8 4.8-6.4 16.7-6.4 16.8 0 .1 0 .2.2.2h27.3c.1 0 .2-.1.2-.2s-4.1-10.7-4.1-10.7H171c-.1 0-.2.1-.2.2s2.9 7.6 2.9 7.6h-18.1l5.2-13.9z"/></g><g id="XMLID_19_"><path id="XMLID_22_" class="st0" d="M57.7 39.4c-1.2 1.2-3.3 2.5-6.8 2.6-1.6.1-3.5.1-4.3.1H28c6.8-6.6 12.7-12.3 13.4-13 .6-.6 2-1.9 3.2-3 2.6-2.4 5-2.8 6.6-2.8 2.6 0 5 1.1 6.7 2.8 3.5 3.7 3.4 9.7-.2 13.3m4.4-17.5c-2.8-2.8-6.7-4.6-11-4.6-3.7 0-6.9 1.3-9.7 3.6-1.2 1-2.5 2.2-4.1 3.8-.8.8-24 23.3-24 23.3 1.2.2 2.9.2 4.4.2h29.2c2.2 0 3.7 0 5.3-.1 3.6-.3 7-1.6 9.8-4.3 6-6.1 6.1-15.8.1-21.9z"/><path id="XMLID_2_" class="st1" d="M24.6 20.4c-2.7-2-5.8-3.2-9.3-3.2-4.3 0-8.2 1.8-11 4.6-6 6.1-5.9 15.8.2 21.8 2.5 2.4 5.4 3.7 8.6 4.2l6-5.8c-1 0-2.4 0-3.6-.1-3.5-.1-5.6-1.4-6.8-2.6C5 35.6 4.9 29.7 8.6 26c1.7-1.7 4.1-2.8 6.7-2.8 1.6 0 3.9.5 6.4 2.5 1.2 1 3.9 3.3 5 4.4.1.1.1.1.2 0l4.1-4c.1-.1.1-.2 0-.2-1.9-1.7-4.7-4.2-6.4-5.5"/><path id="XMLID_1_" class="st2" d="M52.8 13.8C49.9 5.8 42.3 0 33.3 0 22.9 0 14.4 7.6 12.8 17.5c.8-.1 1.7-.2 2.6-.2 1.2 0 2.4.1 3.5.4h.1C20.3 11 26.2 6.1 33.3 6.1c5.8 0 11 3.5 13.3 8.5 0 .1.1.1.2.1 1.7-.5 3.8-.8 5.8-.6.1 0 .2-.1.2-.3"/></g></g></svg>