<?xml version="1.0" encoding="utf-8"?><svg width="124" height="90" viewBox="0 0 124 90" xmlns="http://www.w3.org/2000/svg" xmlns:xlink="http://www.w3.org/1999/xlink"><svg id="event" width="20" height="20" viewBox="-1 -1 20 20" y="70"><style>.ast0{fill:#fff}</style><path class="ast0" d="M13.1 2c.2 0 .5 0 .7.3.3.3.3.7.2 1l-.2.7h-3.1l1.7-1.7c.2-.3.5-.3.7-.3M4.9 2c.2 0 .5 0 .7.3L7.3 4H4.2L4 3.3c-.1-.3-.1-.7.2-1 .3-.3.6-.3.7-.3m8.2-2c-.8 0-1.5.3-2.1.9L9 2.8 7.1.9C6.5.3 5.7 0 4.9 0c-.7 0-1.5.3-2.1.9-.8.8-1.1 2-.7 3.1H0v7h1v7h16v-7h1V4h-2.1c.4-1.1.1-2.3-.7-3.1-.6-.6-1.4-.9-2.1-.9zM2 9V6h14v3H2zm8 7v-5h5v5h-5zm-7 0v-5h5v5H3z"/></svg><svg id="feedback" width="20" height="20" viewBox="-1 -1 20 20" x="20" y="70"><style>.bst0{fill:#666}</style><g id="bXMLID_72_"><path id="bXMLID_78_" class="bst0" d="M5 13h4l8.7-8.7c.4-.4.4-1 0-1.4L15.1.3c-.2-.2-.5-.3-.7-.3-.3 0-.5.1-.7.3L5 9v4zm9.4-10.6l1.2 1.2-1 1-1.2-1.2 1-1zM7 9.8l4.4-4.5 1.2 1.2L8.2 11H7V9.8zm9 6.2H2V2h7V0H0v18h18V9h-2v7z"/></g></svg><svg id="feekback" width="34" height="34" viewBox="7 -9 34 34" y="36"><style>.cst0{fill-rule:evenodd;clip-rule:evenodd;fill:#fff}</style><path class="cst0" d="M35.5 23L32 18V-5c0-1.1.9-2 2-2h3c1.1 0 2 .9 2 2v23l-3.5 5zM37-4c0-.6-.4-1-1-1h-1c-.6 0-1 .4-1 1v1h3v-1zm0 3h-3v18l1.5 2 1.5-2V-1zm-9 17H15v-2h13v2zM15 0h13v2H15V0zm13 9H15V7h13v2zm2-14H12c-.6 0-1 .4-1 1v25c0 .6.4 0 1 0h20.3l1.2 2H11c-1.1 0-2 .1-2-1V-5c0-1.1.9-2 2-2h21c-1.1 0-2 .9-2 2z"/></svg><svg id="msg-close" width="18" height="18" viewBox="-1 -1 18 18" x="104" y="38"><style>.dst0{fill-rule:evenodd;clip-rule:evenodd;fill:#003f9c}</style><g id="dXMLID_161_"><path id="dXMLID_162_" class="dst0" d="M4.5 4.5v1h1v-1h-1zm1 1v1h1v-1h-1zm1 1v1h1v-1h-1zm5-2h-1v1h1v-1zm-1 1h-1v1h1v-1zm-1 1h-1v1h1v-1zm2 5v-1h-1v1h1zm-1-1v-1h-1v1h1zm-1-1v-1h-1v1h1zm-2-2v1h1v-1h-1zm-3 4h1v-1h-1v1zm1-1h1v-1h-1v1zm1-1h1v-1h-1v1zm-3-6v1h1v-1h-1zm9 0h-1v1h1v-1zm0 9v-1h-1v1h1zm-9 0h1v-1h-1v1zm10-10h-1v1h1v-1zm0 11v-1h-1v1h1zm-11 0h1v-1h-1v1zm0-11v1h1v-1h-1z"/></g></svg><svg id="msg-notice" width="18" height="18" viewBox="-1 -1 18 18" x="104" y="20"><style>.est0{fill:#1d529b}</style><g id="eXMLID_4_"><path id="eXMLID_5_" class="est0" d="M13 2.8V4c1.2.9 2 2.4 2 4s-.8 3.1-2 4v1.2c1.8-1 3-3 3-5.2s-1.2-4.2-3-5.2z"/><path id="eXMLID_37_" class="est0" d="M10 2H9L3 5H1c-.6 0-1 .4-1 1v4c0 .6.4 1 1 1h2l6 3h1c.6 0 1-.4 1-1V3c0-.6-.4-1-1-1zm0 11H9l-5.6-2.9-.2-.1H1V6h2.2l.2-.1L9 3h1v10z"/><path id="eXMLID_38_" class="est0" d="M12 5.8v4.4c.6-.5 1-1.3 1-2.2s-.4-1.7-1-2.2z"/></g></svg><svg id="phone" width="20" height="20" viewBox="-1 -1 20 20" x="80" y="70"><style>.fst0{fill:#666}</style><g id="fXMLID_51_"><path id="fXMLID_52_" class="fst0" d="M12 7h2c0-1.7-1.3-3-3-3v2c.5 0 1 .5 1 1zm4 0h2c0-3.9-3.1-7-7-7v2c2.8 0 5 2.2 5 5zm1 3h-5l-1 1c-.1.1-.3.2-.4.2C9.2 11.2 6.1 7.9 7 7l1-1V1c0-.6-.4-1-1-1H1C.5 0 0 .5 0 1c.3 11.9 5.1 16.7 17 17 .6 0 1-.4 1-1v-6c0-.5-.5-1-1-1zm-1 6C6.2 15.5 2.5 11.8 2 2h4v3.5L4.7 7c0 .2.1 1 .4 1.8 1 2.5 4.4 4.3 5.9 4.4l1.5-1.2H16v4z"/></g></svg><svg id="qc" viewBox="-1 -1 34 34" width="34" height="34" x="70"><style>.gst0{fill-rule:evenodd;clip-rule:evenodd;fill:#fff}</style><g id="gXMLID_2_"><g id="gXMLID_191_"><path id="gXMLID_192_" class="gst0" d="M1 15h14V1H1v14zM3 3h10v10H3V3zm2 8h6V5H5v6zm2-4h2v2H7V7zM5 27h6v-6H5v6zm2-4h2v2H7v-2zm-6 8h14V17H1v14zm2-12h10v10H3V19zm25 2h3v-4h-3v4zm-11-4v7h4v-3h3v-4h-7zM27 5h-6v6h6V5zm-2 4h-2V7h2v2zm-8-8v14h14V1H17zm12 12H19V3h10v10zM17 31h8v-4h-8v4zm14 0v-6h-3v6h3zm-7-6h4v-4h-4v4z"/></g></g></svg><svg id="research" width="20" height="20" viewBox="-1 -1 20 20" x="104"><style>.hst0{fill:#666}</style><g id="hXMLID_55_"><path id="hXMLID_56_" class="hst0" d="M14 12H4v2h10v-2zM0 0v18h18V0H0zm16 16H2V2h14v14zm-7-6h5V8h-3l-2 2zM7.5 9l.7-.7L11 5.5 9.7 4 6.8 6.8 5.4 5.4 4 6.8l2.8 2.8.7-.6z"/></g></svg><svg id="service" width="20" height="20" viewBox="-1 -1 20 20" x="40" y="70"><style>.ist0{fill:#666}</style><g id="iXMLID_38_"><path id="iXMLID_39_" class="ist0" d="M16 7h-1c0-3.3-2.7-6-6-6S3 3.7 3 7H2C.9 7 0 7.9 0 9v2c0 1.1.9 2 2 2h1c0 2.2 1.8 4 4 4h4v-3H7v1c-1.1 0-2-.9-2-2V7c0-2.2 1.8-4 4-4s4 1.8 4 4v6h3c1.1 0 2-.9 2-2V9c0-1.1-.9-2-2-2zM2 11V9h1v2H2zm14 0h-1V9h1v2z"/></g></svg><svg id="shopping" width="20" height="20" viewBox="-1 -1 20 20" x="60" y="70"><style>.jst0{fill-rule:evenodd;clip-rule:evenodd;fill:#666}</style><path class="jst0" d="M0 18V0h18v18H0zM16 2H2v2h14V2zm0 4H2v10h14V6zm-7 5c1.7 0 3-1.3 3-3h2c0 2.8-2.2 5-5 5s-5-2.2-5-5h2c0 1.7 1.3 3 3 3z"/></svg><svg id="tel" viewBox="-1 -1 34 34" width="34" height="34" x="70" y="34"><style>.kst0{fill-rule:evenodd;clip-rule:evenodd;fill:#fff}</style><g id="kXMLID_2_"><g id="kXMLID_37_"><path id="kXMLID_38_" class="kst0" d="M31.9 23c-.1-3.8-8.8-6-9-6-.2 0-2.7.4-4 2-2.5-.5-6.2-5.8-6-6 1.9-1.6 2-3.8 2-4 0-.2-2.2-8.8-6-9C.3-.4 0 3.7 0 5.3.1 6.4.1 8 .9 10c7.8 17.7 22.4 22.6 27 22 4.7-.6 4.1-5.9 4-9zm-5 7c-4.2.1-17.7-5.6-24-20-.8-1.8-.9-3-1-4 0-1.4-.1-4.4 6-4 3.3.2 4.9 6.7 5 7 .1.3-.8 2.5-2 3-1.2-.2 3.8 8.5 8 9 1.2-1.4 3.8-2 4-2s7.1 1.7 7 5c0 2.3.6 5.9-3 6z"/></g></g></svg><svg id="up" viewBox="-1 -1 34 34" width="34" height="34" x="34" y="36"><style>.lst0{fill-rule:evenodd;clip-rule:evenodd;fill:#fff}</style><g id="lXMLID_2_"><g id="lXMLID_22_"><path id="lXMLID_23_" class="lst0" d="M31.6 23.1L16 7.5.4 23.1l1.5 1.4L16 10.3l14.1 14.2z"/></g></g></svg><svg id="wechat" width="36" height="36" viewBox="7 -9 36 36"><style>.mst0{fill:#fff}</style><path class="mst0" d="M27.5 6c.9 0 1.5-.7 1.5-1.5 0-.9-.7-1.5-1.5-1.5S26 3.7 26 4.5 26.6 6 27.5 6zM23.5 4.5c0-.9-.7-1.5-1.5-1.5s-1.4.7-1.5 1.5c0 .8.6 1.5 1.5 1.5s1.5-.7 1.5-1.5z"/><circle class="mst0" cx="16.5" cy="4.5" r="1.5"/><path class="mst0" d="M35.5 4.5c0-6.6-6-12-13.5-12S8.5-2.1 8.5 4.5c0 3.3 1.5 6.3 4 8.5v6.5l6.1-3.4c1.1.2 2.2.4 3.4.4 7.5 0 13.5-5.4 13.5-12zM18.3 14l-.7.4-3.1 1.7v-4l-.7-.6c-2.1-1.9-3.3-4.4-3.3-7 0-5.5 5.2-10 11.5-10S33.5-1 33.5 4.5s-5.2 10-11.5 10c-1 0-1.9-.1-2.9-.3l-.8-.2z"/><path class="mst0" d="M37.4 2.9c.1.5.1 1.1.1 1.6 0 .4 0 .8-.1 1.1 1.3 1.5 2.1 3.3 2.1 5.2 0 2.8-1.6 5.3-4 6.9V22L31 19.4c-.5.1-1 .1-1.5.1-1.8 0-3.6-.4-5-1.2-.8.1-1.6.2-2.5.2h-.9c2.2 1.9 5.1 3 8.4 3h1.1l6.9 4v-6.7c2.4-1.9 4-4.8 4-7.9 0-3.2-1.6-6.1-4.1-8z"/></svg><svg id="wo" viewBox="-1 -1 34 34" width="34" height="34" x="36"><style>.nst0{fill-rule:evenodd;clip-rule:evenodd;fill:#fff}</style><g id="nXMLID_2_"><g id="nXMLID_64_"><path id="nXMLID_65_" class="nst0" d="M23 15H9v2h14v-2zM9 24h14v-2H9v2zM9 8v2h9V8H9zm19 20c0 2.1-.1 2-2 2H6c-1.9 0-2 0-2-2V4c0-1.9.2-2 2-2h14V0H4C2.9 0 2 .9 2 2v28c0 1.1.9 2 2 2h24c1.1 0 2-.9 2-2V10h-2v18zm2-25l-2-2-7 7v2h2l7-7z"/></g></g></svg></svg>