<svg width="482" height="464" viewBox="0 0 482 464" xmlns="http://www.w3.org/2000/svg" xmlns:xlink="http://www.w3.org/1999/xlink"><svg width="14" height="12" viewBox="-1 -1 14 12" id="1" x="464" y="304"><title>Combined Shape Copy 6</title><path d="M0 0h12v2H0V0zm0 4h12v2H0V4zm0 4h12v2H0V8z" fill="#7C848E" fill-rule="evenodd"/></svg><svg width="14" height="12" viewBox="-1 -1 14 12" id="1-#00a4ff" x="464" y="292"><path d="M0 0h12v2H0V0zm0 4h12v2H0V4zm0 4h12v2H0V8z" fill="#00a4ff" fill-rule="evenodd"/></svg><svg width="34" height="34" viewBox="-1 -1 34 34" id="1-1" x="396" y="68"><title>Page 1</title><g fill="none" fill-rule="evenodd"><path d="M16 0C7.164 0 0 7.164 0 16c0 8.837 7.164 16 16 16 8.837 0 16-7.163 16-16 0-8.836-7.163-16-16-16" fill="#D4D4D4"/><path d="M12 12c0-1.103-.897-2-2-2s-2 .897-2 2 .897 2 2 2 2-.897 2-2m10-2c-1.103 0-2 .897-2 2s.897 2 2 2 2-.897 2-2-.897-2-2-2m-.747 9.336c-.024.026-2.404 2.664-5.475 2.664-1.767 0-3.46-.896-5.03-2.664a.999.999 0 1 0-1.495 1.328C11.22 22.878 13.416 24 15.778 24c3.959 0 6.848-3.2 6.969-3.336a.999.999 0 1 0-1.494-1.328" fill="#404040"/></g></svg><svg width="34" height="34" viewBox="-1 -1 34 34" id="1-2" x="430" y="340"><title>Page 1 Copy 2</title><g fill="none" fill-rule="evenodd"><path d="M16 0C7.164 0 0 7.164 0 16c0 8.837 7.164 16 16 16 8.837 0 16-7.163 16-16 0-8.836-7.163-16-16-16" fill="#FFD52A"/><path d="M12 12c0-1.103-.897-2-2-2s-2 .897-2 2 .897 2 2 2 2-.897 2-2m10-2c-1.103 0-2 .897-2 2s.897 2 2 2 2-.897 2-2-.897-2-2-2m-.747 9.336c-.024.026-2.404 2.664-5.475 2.664-1.767 0-3.46-.896-5.03-2.664a.999.999 0 1 0-1.495 1.328C11.22 22.878 13.416 24 15.778 24c3.959 0 6.848-3.2 6.969-3.336a.999.999 0 1 0-1.494-1.328" fill="#6D351E"/></g></svg><svg width="34" height="34" viewBox="-1 -1 34 34" id="2-1" y="430"><title>Page 1</title><g fill="none" fill-rule="evenodd"><path d="M16 0C7.164 0 0 7.164 0 16c0 8.837 7.164 16 16 16s16-7.163 16-16c0-8.836-7.164-16-16-16" fill="#D4D4D4"/><path d="M12 14c0-1.103-.897-2-2-2s-2 .897-2 2 .897 2 2 2 2-.897 2-2m10-2c-1.103 0-2 .897-2 2s.897 2 2 2 2-.897 2-2-.897-2-2-2" fill="#404040"/><path d="M20 14a.5.5 0 0 1-.266-.924l4-2.5a.5.5 0 1 1 .531.848l-4 2.5A.498.498 0 0 1 20 14m-8 0a.498.498 0 0 1-.265-.076l-4-2.5a.5.5 0 1 1 .53-.848l4 2.5A.5.5 0 0 1 12 14m8 9a.996.996 0 0 1-.747-.336C18.27 21.56 17.227 21 16.148 21c-1.868 0-3.386 1.647-3.4 1.664a.999.999 0 1 1-1.495-1.328C11.338 21.24 13.36 19 16.148 19c1.675 0 3.221.786 4.6 2.336A.999.999 0 0 1 20 23" fill="#404040"/></g></svg><svg width="34" height="34" viewBox="-1 -1 34 34" id="2-2" x="430" y="272"><title>Page 1 Copy 6</title><g fill="none" fill-rule="evenodd"><path d="M16 0C7.164 0 0 7.164 0 16c0 8.837 7.164 16 16 16s16-7.163 16-16c0-8.836-7.164-16-16-16" fill="#FFD52A"/><path d="M12 14c0-1.103-.897-2-2-2s-2 .897-2 2 .897 2 2 2 2-.897 2-2m10-2c-1.103 0-2 .897-2 2s.897 2 2 2 2-.897 2-2-.897-2-2-2" fill="#6D351E"/><path d="M20 14a.5.5 0 0 1-.266-.924l4-2.5a.5.5 0 1 1 .531.848l-4 2.5A.498.498 0 0 1 20 14m-8 0a.498.498 0 0 1-.265-.076l-4-2.5a.5.5 0 1 1 .53-.848l4 2.5A.5.5 0 0 1 12 14m8 9a.996.996 0 0 1-.747-.336C18.27 21.56 17.227 21 16.148 21c-1.868 0-3.386 1.647-3.4 1.664a.999.999 0 1 1-1.495-1.328C11.338 21.24 13.36 19 16.148 19c1.675 0 3.221.786 4.6 2.336A.999.999 0 0 1 20 23" fill="#6D351E"/></g></svg><svg id="account-complaint" viewBox="-1 -1 66 66" width="66" height="66" x="264" y="66"><style>.agst0{fill-rule:evenodd;clip-rule:evenodd;fill:#757a80}</style><g id="agXMLID_86_"><path id="agXMLID_87_" class="agst0" d="M6 13v38h52V13H6zm50 36H8V15h48v34zm-6-18H32v2h18v-2zm-6 5H32v2h12v-2zm-28 1c0-1.7 1.3-3 3-3h4c1.7 0 3 1.3 3 3v2h2v-2c0-2.8-2.2-5-5-5h-4c-2.8 0-5 2.2-5 5v2h2v-2zm5-6c2.2 0 4-1.8 4-4s-1.8-4-4-4-4 1.8-4 4 1.8 4 4 4zm0-6c1.1 0 2 .9 2 2s-.9 2-2 2-2-.9-2-2 .9-2 2-2zm29 1H32v2h18v-2z"/></g></svg><svg id="account-complaint-hover" viewBox="-1 -1 66 66" width="66" height="66" y="66"><style>.ahst0{fill:url(#ahXMLID_2_)}</style><g id="ahXMLID_86_"><linearGradient id="ahXMLID_2_" gradientUnits="userSpaceOnUse" x1="46.727" y1="57.508" x2="17.273" y2="6.492"><stop offset="0" stop-color="#0063ff"/><stop offset="1" stop-color="#00c8de"/></linearGradient><path id="ahXMLID_87_" class="ahst0" d="M6 13v38h52V13H6zm50 36H8V15h48v34zm-6-18H32v2h18v-2zm-6 5H32v2h12v-2zm-28 1c0-1.7 1.3-3 3-3h4c1.7 0 3 1.3 3 3v2h2v-2c0-2.8-2.2-5-5-5h-4c-2.8 0-5 2.2-5 5v2h2v-2zm5-6c2.2 0 4-1.8 4-4s-1.8-4-4-4-4 1.8-4 4 1.8 4 4 4zm0-6c1.1 0 2 .9 2 2s-.9 2-2 2-2-.9-2-2 .9-2 2-2zm29 1H32v2h18v-2z"/></g></svg><svg id="api" width="18" height="18" viewBox="-1 -1 18 18" x="102" y="430"><style>.aist0{fill:#999}</style><g id="aiXMLID_2_"><g id="aiXMLID_47_"><path id="aiXMLID_48_" class="aist0" d="M10.4 1H2v14h12V4.6L10.4 1zM13 14H3V2h6v4h4v8zm-3-9V2l3 3h-3z"/></g></g></svg><svg id="approve" width="66" height="66" viewBox="-1 -1 66 66" x="66" y="66"><style>.ajst0{fill:#f0f1f2}</style><g id="ajXMLID_24_"><path id="ajXMLID_29_" class="ajst0" d="M32 0C14.3 0 0 14.3 0 32s14.3 32 32 32 32-14.3 32-32S49.7 0 32 0zm0 62C15.5 62 2 48.5 2 32S15.5 2 32 2s30 13.5 30 30-13.5 30-30 30z"/><path id="ajXMLID_38_" class="ajst0" d="M32 22c-3.9 0-7 3.1-7 7s3.1 7 7 7 7-3.1 7-7-3.1-7-7-7zm0 12c-2.8 0-5-2.2-5-5s2.2-5 5-5 5 2.2 5 5-2.2 5-5 5z"/><path id="ajXMLID_41_" class="ajst0" d="M43 29c0-6.1-4.9-11-11-11s-11 4.9-11 11c0 2.7 1 5.2 2.7 7.2L19.1 44l4.5.3L26 48l4.7-8.1c.4 0 .8.1 1.3.1s.8 0 1.3-.1L38 48l2.5-3.7L45 44l-4.6-7.8c1.6-2 2.6-4.5 2.6-7.2zM25.9 44.2l-.7-1-.6-.8-1-.1-1.2-.1 2.7-4.6c1 .8 2.2 1.5 3.5 1.9l-2.7 4.7zM32 38c-5 0-9-4-9-9s4-9 9-9 9 4 9 9-4 9-9 9zm9.6 4.2l-1.2.1-1 .1-.6.8-.7 1-2.8-4.7c1.3-.4 2.5-1.1 3.5-1.9l2.8 4.6z"/></g></svg><svg id="arrow-down" width="18" height="18" viewBox="-1 -1 18 18" x="156" y="430"><style>.akst0{fill-rule:evenodd;clip-rule:evenodd;fill:#666}</style><path id="akXMLID_2_" class="akst0" d="M11 7v1h-1v1H9v1H7V9H6V8H5V7H4V5h1v1h1v1h1v1h2V7h1V6h1V5h1v2h-1z"/></svg><svg id="arrow-left" width="18" height="18" viewBox="-1 -1 18 18" x="174" y="430"><style>.alst0{fill-rule:evenodd;clip-rule:evenodd;fill:#666}</style><path id="alXMLID_2_" class="alst0" d="M9 11H8v-1H7V9H6V7h1V6h1V5h1V4h2v1h-1v1H9v1H8v2h1v1h1v1h1v1H9v-1z"/></svg><svg width="18" height="18" viewBox="-1 -1 18 18" id="arrow-left-#00a4ff" x="192" y="430"><style>.amst0{fill-rule:evenodd;clip-rule:evenodd;fill:#00a4ff}</style><path class="amst0" d="M9 11H8v-1H7V9H6V7h1V6h1V5h1V4h2v1h-1v1H9v1H8v2h1v1h1v1h1v1H9v-1z"/></svg><svg id="arrow-right" width="18" height="18" viewBox="-1 -1 18 18" x="408" y="430"><style>.anst0{fill-rule:evenodd;clip-rule:evenodd;fill:#666}</style><path id="anXMLID_2_" class="anst0" d="M8 5h1v1h1v1h1v2h-1v1H9v1H8v1H6v-1h1v-1h1V9h1V7H8V6H7V5H6V4h2v1z"/></svg><svg id="arrow-right" width="18" height="18" viewBox="-1 -1 18 18" x="444" y="430"><style>.aost0{fill-rule:evenodd;clip-rule:evenodd;fill:#666}</style><path id="aoXMLID_2_" class="aost0" d="M8 5h1v1h1v1h1v2h-1v1H9v1H8v1H6v-1h1v-1h1V9h1V7H8V6H7V5H6V4h2v1z"/></svg><svg width="18" height="18" viewBox="-1 -1 18 18" id="arrow-right-#00a4ff" x="464" y="18"><style>.apst0{fill-rule:evenodd;clip-rule:evenodd;fill:#00a4ff}</style><path class="apst0" d="M8 5h1v1h1v1h1v2h-1v1H9v1H8v1H6v-1h1v-1h1V9h1V7H8V6H7V5H6V4h2v1z"/></svg><svg width="18" height="18" viewBox="-1 -1 18 18" id="arrow-right-#00a4ff" x="464" y="54"><style>.aqst0{fill-rule:evenodd;clip-rule:evenodd;fill:#00a4ff}</style><path class="aqst0" d="M8 5h1v1h1v1h1v2h-1v1H9v1H8v1H6v-1h1v-1h1V9h1V7H8V6H7V5H6V4h2v1z"/></svg><svg id="arrow-up" width="18" height="18" viewBox="-1 -1 18 18" x="408" y="396"><style>.arst0{fill-rule:evenodd;clip-rule:evenodd;fill:#666}</style><path id="arXMLID_2_" class="arst0" d="M5 8V7h1V6h1V5h2v1h1v1h1v1h1v2h-1V9h-1V8H9V7H7v1H6v1H5v1H4V8h1z"/></svg><svg id="arrow32-left" width="34" height="34" viewBox="-1 -1 34 34" x="34" y="430"><style>.asst0{fill:#999}</style><path id="asXMLID_2_" class="asst0" d="M11 15v-1h1v-1h1v-1h1v-1h1v-1h1V9h1V8h1V7h1V6h1V5h2v1h-1v1h-1v1h-1v1h-1v1h-1v1h-1v1h-1v1h-1v1h-1v1h-1v2h1v1h1v1h1v1h1v1h1v1h1v1h1v1h1v1h1v1h1v1h-2v-1h-1v-1h-1v-1h-1v-1h-1v-1h-1v-1h-1v-1h-1v-1h-1v-1h-1v-1h-1v-2h1z"/></svg><svg id="arrow32-left-hover" width="34" height="34" viewBox="-1 -1 34 34" x="68" y="430"><style>.atst0{fill-rule:evenodd;clip-rule:evenodd;fill:#00a4ff}</style><path id="atXMLID_2_" class="atst0" d="M11 15v-1h1v-1h1v-1h1v-1h1v-1h1V9h1V8h1V7h1V6h1V5h2v1h-1v1h-1v1h-1v1h-1v1h-1v1h-1v1h-1v1h-1v1h-1v1h-1v2h1v1h1v1h1v1h1v1h1v1h1v1h1v1h1v1h1v1h1v1h-2v-1h-1v-1h-1v-1h-1v-1h-1v-1h-1v-1h-1v-1h-1v-1h-1v-1h-1v-1h-1v-2h1z"/></svg><svg id="arrow32-right" width="34" height="34" viewBox="-1 -1 34 34" x="330" y="330"><style>.aust0{fill:#999}</style><path class="aust0" d="M21 17v1h-1v1h-1v1h-1v1h-1v1h-1v1h-1v1h-1v1h-1v1h-1v1h-2v-1h1v-1h1v-1h1v-1h1v-1h1v-1h1v-1h1v-1h1v-1h1v-1h1v-2h-1v-1h-1v-1h-1v-1h-1v-1h-1v-1h-1V9h-1V8h-1V7h-1V6h-1V5h2v1h1v1h1v1h1v1h1v1h1v1h1v1h1v1h1v1h1v1h1v2h-1z"/></svg><svg id="arrow32-right-hover" width="34" height="34" viewBox="-1 -1 34 34" x="430" y="238"><style>.avst0{fill-rule:evenodd;clip-rule:evenodd;fill:#00a4ff}</style><path class="avst0" d="M21 17v1h-1v1h-1v1h-1v1h-1v1h-1v1h-1v1h-1v1h-1v1h-1v1h-2v-1h1v-1h1v-1h1v-1h1v-1h1v-1h1v-1h1v-1h1v-1h1v-1h1v-2h-1v-1h-1v-1h-1v-1h-1v-1h-1v-1h-1V9h-1V8h-1V7h-1V6h-1V5h2v1h1v1h1v1h1v1h1v1h1v1h1v1h1v1h1v1h1v1h1v2h-1z"/></svg><svg id="bbs" width="66" height="66" viewBox="-1 -1 66 66" x="132"><style>.awst0{fill:#f0f1f2}</style><g id="awXMLID_15_"><path id="awXMLID_22_" class="awst0" d="M32 0C14.3 0 0 14.3 0 32s14.3 32 32 32 32-14.3 32-32S49.7 0 32 0zm0 62C15.5 62 2 48.5 2 32S15.5 2 32 2s30 13.5 30 30-13.5 30-30 30z"/><path id="awXMLID_28_" class="awst0" d="M38 20H18v18l6-5h14V20zm-2 11H23.3l-.6.5-2.7 2.2V22h16v9z"/><path id="awXMLID_29_" class="awst0" d="M40 27h4v13.7l-2.7-2.2-.6-.5H28v-3h-2v5h14l6 5V25h-6z"/></g></svg><svg id="blog" width="66" height="66" viewBox="7 -9 66 66" x="132" y="66"><style>.axst0{fill:#f0f1f2}</style><g id="axXMLID_14_"><path id="axXMLID_27_" class="axst0" d="M40-8C22.3-8 8 6.3 8 24s14.3 32 32 32 32-14.3 32-32S57.7-8 40-8zm0 62c-16.5 0-30-13.5-30-30S23.5-6 40-6 70 7.5 70 24 56.5 54 40 54z"/><path id="axXMLID_28_" class="axst0" d="M32 16h16v2H32z"/><path id="axXMLID_29_" class="axst0" d="M32 22h16v2H32z"/><path id="axXMLID_32_" class="axst0" d="M26 39h19.4l.6-.6 1.4-1.4 4.6-4.6 1.4-1.4.6-.6V9H26v30zm20-3.4V31h4.6L46 35.6zM28 11h24v18h-8v8H28V11z"/></g></svg><svg id="bug" width="18" height="18" viewBox="-1 -1 18 18" x="426" y="430"><style>.ayst0{fill-rule:evenodd;clip-rule:evenodd;fill:#999}</style><g id="ayXMLID_58_"><path id="ayXMLID_59_" class="ayst0" d="M7.5 0C3.4 0 0 3.4 0 7.5S3.4 15 7.5 15 15 11.6 15 7.5 11.6 0 7.5 0zm0 14C3.9 14 1 11.1 1 7.5S3.9 1 7.5 1 14 3.9 14 7.5 11.1 14 7.5 14zM12 7c-.2-2.1-1.9-3.7-4-3.9V2H7v1.1C4.9 3.3 3.3 4.9 3 7H2v1h1c.2 2.1 1.9 3.7 4 3.9V13h1v-1.1c2.1-.2 3.7-1.9 4-3.9h1V7h-1zm-1 1c-.2 1.5-1.4 2.7-3 2.9V9H7v1.9C5.5 10.7 4.3 9.5 4 8h2V7H4c.2-1.5 1.4-2.7 3-2.9V6h1V4.1c1.5.2 2.7 1.4 3 2.9H9v1h2z"/></g></svg><svg id="calculator" viewBox="-1 -1 66 66" width="66" height="66" y="132"><style>.azst0{fill-rule:evenodd;clip-rule:evenodd;fill:#757a80}</style><g id="azXMLID_94_"><path id="azXMLID_95_" class="azst0" d="M18.2 47.2l2.8-2.8 2.8 2.8 1.4-1.4-2.8-2.8 2.8-2.8-1.4-1.4-2.8 2.8-2.8-2.8-1.4 1.4 2.8 2.8-2.8 2.8 1.4 1.4zM20 24h2v-3h3v-2h-3v-3h-2v3h-3v2h3v3zM33 8H8v48h48V8H33zm-2 46H10V33h21v21zm0-23H10V10h21v21zm23 23H33V33h21v21zm0-23H33V10h21v21zm-7 9h-8v2h8v-2zm1-21h-8v2h8v-2zm-1 25h-8v2h8v-2z"/></g></svg><svg id="calculator-hover" viewBox="-1 -1 66 66" width="66" height="66" x="66" y="132"><style>.bast0{fill:url(#baXMLID_2_)}</style><g id="baXMLID_94_"><linearGradient id="baXMLID_2_" gradientUnits="userSpaceOnUse" x1="48.392" y1="60.392" x2="15.608" y2="3.608"><stop offset="0" stop-color="#0063ff"/><stop offset="1" stop-color="#00c8de"/></linearGradient><path id="baXMLID_95_" class="bast0" d="M18.2 47.2l2.8-2.8 2.8 2.8 1.4-1.4-2.8-2.8 2.8-2.8-1.4-1.4-2.8 2.8-2.8-2.8-1.4 1.4 2.8 2.8-2.8 2.8 1.4 1.4zM20 24h2v-3h3v-2h-3v-3h-2v3h-3v2h3v3zM33 8H8v48h48V8H33zm-2 46H10V33h21v21zm0-23H10V10h21v21zm23 23H33V33h21v21zm0-23H33V10h21v21zm-7 9h-8v2h8v-2zm1-21h-8v2h8v-2zm-1 25h-8v2h8v-2z"/></g></svg><svg id="code" width="18" height="18" viewBox="-1 -1 18 18" x="464" y="36"><style>.bbst0{fill:#999}</style><g id="bbXMLID_14_"><g id="bbXMLID_120_"><path id="bbXMLID_121_" class="bbst0" d="M16 11V1H0v13h16v-1H1V5h14v6h1zM1 4V2h14v2H1zm5 3H5v1h1V7zM4 8v1h1V8H4zm2 2V9H5v1h1zm1 1v-1H6v1h1zm0-5H6v1h1V6zm3 4h1V9h-1v1zm2-1V8h-1v1h1zm-2-2v1h1V7h-1zM9 6v1h1V6H9zm0 5h1v-1H9v1z"/></g></g></svg><svg id="code" width="66" height="66" viewBox="-1 -1 66 66" x="132" y="132"><style>.bcst0{fill:#f0f1f2}.bcst1{fill-rule:evenodd;clip-rule:evenodd;fill:#5d5d5d}</style><g id="bcXMLID_24_"><path id="bcXMLID_27_" class="bcst0" d="M32 0C14.3 0 0 14.3 0 32s14.3 32 32 32 32-14.3 32-32S49.7 0 32 0zm0 62C15.5 62 2 48.5 2 32S15.5 2 32 2s30 13.5 30 30-13.5 30-30 30z"/></g><path id="bcXMLID_15_" transform="rotate(30 89.999 1.701)" class="bcst1" d="M89-7.3h2v18h-2z"/><g id="bcXMLID_18_"><path id="bcXMLID_19_" class="bcst0" d="M23.1 24.9l-5.7 5.7L16 32l1.4 1.4 5.7 5.7 1.4-1.4-5.7-5.7 5.7-5.7z"/><path id="bcXMLID_22_" class="bcst0" d="M46.6 30.6l-5.7-5.7-1.4 1.4 5.7 5.7-5.7 5.7 1.4 1.4 5.7-5.7L48 32z"/><path id="bcXMLID_23_" transform="rotate(-156.039 32 32.002)" class="bcst0" d="M31 22.2h2v19.7h-2z"/></g></svg><svg id="course" width="18" height="18" viewBox="-1 -1 18 18" x="366" y="364"><style>.bdst0{fill-rule:evenodd;clip-rule:evenodd;fill:#999}</style><g id="bdXMLID_53_"><path id="bdXMLID_54_" class="bdst0" d="M8 1C5 1 2.5 3.5 2.5 6.5c0 2.1 1.2 4 3 4.9V16h5v-4.6c1.8-.9 3-2.7 3-4.9C13.5 3.5 11 1 8 1zm1.5 14h-3v-1h3v1zm0-4.3V13h-3v-2.3c-1.7-.6-3-2.3-3-4.2C3.5 4 5.5 2 8 2s4.5 2 4.5 4.5c0 2-1.3 3.6-3 4.2zM6.5 7h1v3h1V7h1V6h-3v1z"/></g></svg><svg id="developer-tools" width="66" height="66" viewBox="-1 -1 66 66" x="198"><style>.best0{fill:#757a80}</style><path class="best0" d="M40 41l3.6-3.6L45 36l-5-5h-2.8l5 5-5 5H40zm18 4V11H6v42h52v-2H8V21h48v24h2zM8 19v-6h48v6H8zm16 12l-3.6 3.6L19 36l5 5h2.8l-5-5 5-5H24zm7.2 12l3.5-14h-2l-3.5 14h2z"/></svg><svg id="developer-tools-hover" width="66" height="66" viewBox="-1 -1 66 66" x="198" y="66"><style>.bfst0{fill:url(#bfSVGID_1_)}</style><linearGradient id="bfSVGID_1_" gradientUnits="userSpaceOnUse" x1="47.593" y1="59.008" x2="16.407" y2="4.992"><stop offset="0" stop-color="#0063ff"/><stop offset="1" stop-color="#00c8de"/></linearGradient><path class="bfst0" d="M24 31l-3.6 3.6L19 36l5 5h2.8l-5-5 5-5H24zm34 14V11H6v42h52v-2H8V21h48v24h2zM8 19v-6h48v6H8zm32 22l3.6-3.6L45 36l-5-5h-2.8l5 5-5 5H40zm-8.8 2l3.5-14h-2l-3.5 14h2z"/></svg><svg id="domain-transfer" viewBox="-1 -1 66 66" width="66" height="66" x="198" y="132"><style>.bgst0{fill-rule:evenodd;clip-rule:evenodd;fill:#757a80}</style><g id="bgXMLID_2_"><g id="bgXMLID_143_"><path id="bgXMLID_144_" class="bgst0" d="M19 29v6c0 1.1.9 2 2 2h4v-2h-4v-6h4v-2h-4c-1.1 0-2 .9-2 2zm-4 8h2v-2h-2v2zm35.4-23.4a25.953 25.953 0 0 0-36.8 0 25.953 25.953 0 0 0 0 36.8C18.7 55.5 25.3 58 32 58c6.6 0 13.3-2.5 18.4-7.6 10.1-10.2 10.1-26.6 0-36.8zM55.5 37c-.9 4.4-3.1 8.6-6.5 12-2.9 2.9-6.3 4.8-9.9 6 2.5-2.3 4.5-5.7 5.9-9.9h-2.1C40.8 51.2 37.1 55.4 33 56V45h-2v10.9c-4.2-.6-7.8-4.8-9.9-10.9H19c1.4 4.2 3.4 7.6 5.9 9.9-3.6-1.1-7-3.1-9.9-6-3.4-3.4-5.6-7.6-6.5-12H13v-2H8.2c-.2-2-.2-4 0-6H13v-2H8.5c.9-4.4 3.1-8.6 6.5-12 2.9-2.9 6.3-4.8 9.9-6-2.5 2.3-4.5 5.7-5.9 9.9h2.1c2.1-6.1 5.8-10.3 9.9-10.9V19h2V8.1c4.2.6 7.8 4.8 9.9 10.9H45c-1.4-4.2-3.4-7.6-5.9-9.9 3.6 1.1 7 3.1 9.9 6 3.4 3.4 5.6 7.6 6.5 12H51v2h4.8c.2 2 .3 4 0 6H51v2h4.5zM44 27h-6c-1.1 0-2 .9-2 2v8h2v-8h2v8h2v-8h2v8h2v-8c0-1.1-.9-2-2-2zm-12 0h-3c-1.1 0-2 .9-2 2v6c0 1.1.9 2 2 2h3c1.1 0 2-.9 2-2v-6c0-1.1-.9-2-2-2zm0 8h-3v-6h3v6z"/></g></g></svg><svg id="domain-transfer-hover" viewBox="-1 -1 66 66" width="66" height="66" y="198"><style>.bhst0{fill:url(#bhXMLID_3_)}</style><g id="bhXMLID_2_"><g id="bhXMLID_143_"><linearGradient id="bhXMLID_3_" gradientUnits="userSpaceOnUse" x1="44.995" y1="54.543" x2="18.967" y2="9.461"><stop offset="0" stop-color="#0063ff"/><stop offset="1" stop-color="#00c8de"/></linearGradient><path id="bhXMLID_144_" class="bhst0" d="M19 29v6c0 1.1.9 2 2 2h4v-2h-4v-6h4v-2h-4c-1.1 0-2 .9-2 2zm-4 8h2v-2h-2v2zm35.4-23.4c-10.2-10.2-26.6-10.2-36.8 0s-10.2 26.6 0 36.8C18.7 55.5 25.3 58 32 58c6.6 0 13.3-2.5 18.4-7.6 10.1-10.2 10.1-26.6 0-36.8zM55.5 37c-.9 4.4-3.1 8.6-6.5 12-2.9 2.9-6.3 4.8-9.9 6 2.5-2.3 4.5-5.7 5.9-9.9h-2.1C40.8 51.2 37.1 55.4 33 56V45h-2v10.9c-4.2-.6-7.8-4.8-9.9-10.9H19c1.4 4.2 3.4 7.6 5.9 9.9-3.6-1.1-7-3.1-9.9-6-3.4-3.4-5.6-7.6-6.5-12H13v-2H8.2c-.2-2-.2-4 0-6H13v-2H8.5c.9-4.4 3.1-8.6 6.5-12 2.9-2.9 6.3-4.8 9.9-6-2.5 2.3-4.5 5.7-5.9 9.9h2.1c2.1-6.1 5.8-10.3 9.9-10.9V19h2V8.1c4.2.6 7.8 4.8 9.9 10.9H45c-1.4-4.2-3.4-7.6-5.9-9.9 3.6 1.1 7 3.1 9.9 6 3.4 3.4 5.6 7.6 6.5 12H51v2h4.8c.2 2 .3 4 0 6H51v2l4.5-.1zM44 27h-6c-1.1 0-2 .9-2 2v8h2v-8h2v8h2v-8h2v8h2v-8c0-1.1-.9-2-2-2zm-12 0h-3c-1.1 0-2 .9-2 2v6c0 1.1.9 2 2 2h3c1.1 0 2-.9 2-2v-6c0-1.1-.9-2-2-2zm0 8h-3v-6h3v6z"/></g></g></svg><svg id="edit-password" viewBox="-1 -1 66 66" width="66" height="66" x="66" y="198"><style>.bist0{fill-rule:evenodd;clip-rule:evenodd;fill:#757a80}</style><g id="biXMLID_65_"><path id="biXMLID_66_" class="bist0" d="M18 34c1.1 0 2-.9 2-2s-.9-2-2-2-2 .9-2 2 .9 2 2 2zm9 0c1.1 0 2-.9 2-2s-.9-2-2-2-2 .9-2 2 .9 2 2 2zm25-15v2h5v22h-5v2h7V19h-7zM36 34c1.1 0 2-.9 2-2s-.9-2-2-2-2 .9-2 2 .9 2 2 2zm9-19h1v4H5v26h41v4h-1v2h4v-2h-1V15h1v-2h-4v2zm1 28H7V21h39v22z"/></g></svg><svg id="edit-password-hover" viewBox="-1 -1 66 66" width="66" height="66" x="132" y="198"><style>.bjst0{fill:url(#bjXMLID_2_)}</style><g id="bjXMLID_65_"><linearGradient id="bjXMLID_2_" gradientUnits="userSpaceOnUse" x1="44.477" y1="53.611" x2="19.621" y2="10.559"><stop offset="0" stop-color="#0063ff"/><stop offset="1" stop-color="#00c8de"/></linearGradient><path id="bjXMLID_66_" class="bjst0" d="M18 34c1.1 0 2-.9 2-2s-.9-2-2-2-2 .9-2 2 .9 2 2 2zm9 0c1.1 0 2-.9 2-2s-.9-2-2-2-2 .9-2 2 .9 2 2 2zm25-15v2h5v22h-5v2h7V19h-7zM36 34c1.1 0 2-.9 2-2s-.9-2-2-2-2 .9-2 2 .9 2 2 2zm9-19h1v4H5v26h41v4h-1v2h4v-2h-1V15h1v-2h-4v2zm1 28H7V21h39v22z"/></g></svg><svg id="edit-phone" viewBox="-1 -1 66 66" width="66" height="66" x="198" y="198"><style>.bkst0{fill-rule:evenodd;clip-rule:evenodd;fill:#757a80}</style><g id="bkXMLID_14_"><g id="bkXMLID_92_"><path id="bkXMLID_93_" class="bkst0" d="M38 29H26v2h12v-2zm2 7h4.2l18.4-18.4-4.5-4.5L40 31.7V36zm18.4-19.8l1.4 1.4-14.1 14.1-1.4-1.4 14.1-14.1zM42.8 31.7l1.4 1.4-1.4 1.4-.4-.4-1-1 1.4-1.4zM48 48H18V8h30v11.3l2-1.7V6H16v52h34V34.7l-2 1.7V48zm0 8H18v-6h30v6zm-12-4h-6v2h6v-2zM26 36h12v-2H26v2zm16-12H26v2h16v-2z"/></g></g></svg><svg id="edit-phone-hover" viewBox="-1 -1 66 66" width="66" height="66" x="264"><style>.blst0{fill:url(#blXMLID_2_)}</style><g id="blXMLID_14_"><g id="blXMLID_92_"><linearGradient id="blXMLID_2_" gradientUnits="userSpaceOnUse" x1="50.722" y1="57.583" x2="19.705" y2="3.861"><stop offset="0" stop-color="#0063ff"/><stop offset="1" stop-color="#00c8de"/></linearGradient><path id="blXMLID_93_" class="blst0" d="M38 29H26v2h12v-2zm2 7h4.2l18.4-18.4-4.5-4.5L40 31.7V36zm18.4-19.8l1.4 1.4-14.1 14.1-1.4-1.4 14.1-14.1zM42.8 31.7l1.4 1.4-1.4 1.4-.4-.4-1-1 1.4-1.4zM48 48H18V8h30v11.3l2-1.7V6H16v52h34V34.7l-2 1.7V48zm0 8H18v-6h30v6zm-12-4h-6v2h6v-2zM26 36h12v-2H26v2zm16-12H26v2h16v-2z"/></g></g></svg><svg id="email" width="66" height="66" viewBox="7 -9 66 66"><style>.bmst0{fill-rule:evenodd;clip-rule:evenodd;fill:#f0f1f2}</style><path class="bmst0" d="M40-8C22.3-8 8 6.3 8 24s14.3 32 32 32 32-14.3 32-32S57.7-8 40-8zm0 62c-16.5 0-30-13.5-30-30S23.5-6 40-6 70 7.5 70 24 56.5 54 40 54zM25 36h30V12H25v24zm26.3-22L40 23.7 28.7 14h22.6zM27 15.2l13 11.1 13-11.1V34H27V15.2z"/></svg><svg id="error-icon" width="18" height="18" viewBox="-1 -1 18 18" x="464"><style>.bnst0{fill-rule:evenodd;clip-rule:evenodd;fill:#ff7200}</style><path class="bnst0" d="M8 10h1V4H8v6zm7-6.6L9.2.1C9 0 8.8 0 8.5 0c-.3 0-.6.1-.8.2L1.9 3.4c-.5.3-.9.8-.9 1.4v6.4c0 .6.4 1.1.8 1.4l5.7 3.2c.3.1.7.2 1 .2.3 0 .6-.1.8-.2l5.8-3.2c.5-.3.8-.8.9-1.4V4.8c0-.6-.4-1.2-1-1.4zm0 7.4c0 .5-.3 1-.7 1.2l-5 2.8c-.3.1-.5.2-.8.2-.3 0-.6-.1-.8-.2l-5-2.8c-.4-.3-.7-.7-.7-1.2V5.2c0-.5.3-1 .7-1.2l5-2.8c.3-.1.5-.2.8-.2.2 0 .4 0 .6.1l5 2.8c.5.3.9.7.9 1.3v5.6zM8 12h1v-1H8v1z"/></svg><svg id="filing-domain" width="66" height="66" viewBox="-1 -1 66 66" x="264" y="132"><style>.bost0{fill-rule:evenodd;clip-rule:evenodd;fill:#757a80}</style><path class="bost0" d="M47 41v-8c0-1.1-.9-2-2-2h-6c-1.1 0-2 .9-2 2v8h2v-8h2v8h2v-8h2v8h2zm11 4V11H6v42h52v-2H8V21h48v24h2zM8 19v-6h48v6H8zm18 14v-2h-4c-1.1 0-2 .9-2 2v6c0 1.1.9 2 2 2h4v-2h-4v-6h4zm4-2c-1.1 0-2 .9-2 2v6c0 1.1.9 2 2 2h3c1.1 0 2-.9 2-2v-6c0-1.1-.9-2-2-2h-3zm3 8h-3v-6h3v6zm-15 2v-2h-2v2h2z"/></svg><svg id="filing-domain-hover" width="66" height="66" viewBox="-1 -1 66 66" x="264" y="198"><style>.bpst0{fill:url(#bpSVGID_1_)}</style><linearGradient id="bpSVGID_1_" gradientUnits="userSpaceOnUse" x1="47.593" y1="59.008" x2="16.407" y2="4.992"><stop offset="0" stop-color="#0063ff"/><stop offset="1" stop-color="#00c8de"/></linearGradient><path class="bpst0" d="M58 45V11H6v42h52v-2H8V21h48v24h2zM8 19v-6h48v6H8zm39 22v-8c0-1.1-.9-2-2-2h-6c-1.1 0-2 .9-2 2v8h2v-8h2v8h2v-8h2v8h2zm-21-8v-2h-4c-1.1 0-2 .9-2 2v6c0 1.1.9 2 2 2h4v-2h-4v-6h4zm4-2c-1.1 0-2 .9-2 2v6c0 1.1.9 2 2 2h3c1.1 0 2-.9 2-2v-6c0-1.1-.9-2-2-2h-3zm3 8h-3v-6h3v6zm-15 2v-2h-2v2h2z"/></svg><svg id="gift" width="66" height="66" viewBox="7 -9 66 66" y="264"><style>.bqst0{fill:#f0f1f2}</style><path class="bqst0" d="M40-8C22.3-8 8 6.3 8 24s14.3 32 32 32 32-14.3 32-32S57.7-8 40-8zm0 62c-16.5 0-30-13.5-30-30S23.5-6 40-6 70 7.5 70 24 56.5 54 40 54z"/><path class="bqst0" d="M48.8 10.2C48 9.4 47 9 46 9s-2 .4-2.8 1.2L40 13.3l-3.2-3.2C36 9.4 35 9 34 9s-2 .4-2.8 1.2c-1.3 1.3-1.5 3.3-.6 4.8H25v9h2v15h26V24h2v-9h-5.6c.9-1.5.7-3.5-.6-4.8zm-16.2 1.4c.4-.4.9-.6 1.4-.6s1 .2 1.4.6l3.2 3.2.2.2h-6l-.6-1c-.4-.8-.2-1.8.4-2.4zM39 37H29V24h10v13zm0-15H27v-5h12v5zm2.4-7.2l3.2-3.2c.4-.4.9-.6 1.4-.6s1 .2 1.4.6c.6.6.8 1.6.3 2.4l-.6 1h-6l.3-.2zM51 37H41V24h10v13zm2-20v5H41v-5h12z"/></svg><svg id="guide" width="18" height="18" viewBox="-1 -1 18 18" x="464" y="72"><style>.brst0{fill:#999}</style><g id="brXMLID_2_"><g id="brXMLID_55_"><path id="brXMLID_56_" class="brst0" d="M8 15c-3.9 0-7-3.1-7-7s3.2-7 7-7c3.5 0 6.5 2.6 6.9 6h1c-.5-3.9-3.9-7-8-7C3.6 0 0 3.6 0 8s3.6 8 8 8c4.1 0 7.5-3.1 8-7h-1c-.5 3.4-3.4 6-7 6zm-2.5-2.7l5.1-2.8-.1-5.8-5.1 2.8.1 5.8zm4.1-6.9v3L7 6.8l2.6-1.4zm-.5 3.8l-2.6 1.4v-3l2.6 1.6z"/></g></g></svg><svg width="18" height="18" viewBox="-1 -1 18 18" id="icon-down-pdf" x="464" y="90"><title>开发者资源 copy 7</title><g fill="#666" fill-rule="evenodd"><path d="M0 16h16V0H0v16zM2 2h12v12H2V2z"/><path d="M11.022 9.99c.302.03.826.195.989.447a.26.26 0 0 1 .032.24c-.034.102-.134.146-.19.163a.49.49 0 0 1-.432-.078 17.636 17.636 0 0 1-.873-.81c.142.01.308.023.474.039m-3.243-.673c-.173.037-.494.117-.751.18.1-.151.224-.353.354-.6a5.96 5.96 0 0 0 .363-.851c.14.234.331.548.429.684.091.126.251.322.377.473a7.506 7.506 0 0 0-.772.114M7.66 3.912c.228.1.173.655.143.959-.008.08-.015.15-.017.202-.004.133-.08.39-.158.623-.105-.345-.237-.833-.25-1.138-.023-.535.206-.63.282-.646M4.598 11.74c-.236.288-.569.446-.646.403-.014-.043.034-.25.318-.527.178-.176.477-.326.722-.43a7.573 7.573 0 0 1-.394.554m5.094-2.714a26.151 26.151 0 0 1-.899-.992c-.355-.416-.628-1-.705-1.171.608-1.832.694-3.035.257-3.575a.776.776 0 0 0-.724-.281c-.558.064-1.124.72-1.063 1.67.051.792.563 2.09.677 2.369-.07.198-.331.927-.608 1.498-.277.57-.781 1.243-.911 1.413-.288.068-1.635.419-2.312 1.225-.426.507-.522 1.043-.255 1.433.172.253.463.39.796.39.142 0 .291-.025.442-.075.905-.305 1.803-1.97 1.966-2.287.198-.08.967-.381 1.631-.49a11.897 11.897 0 0 1 1.241-.141c.197.323 1 1.519 2.227 1.806.745.17 1.275-.255 1.464-.761.204-.542.061-1.278-.608-1.633-.95-.504-2.288-.426-2.616-.398"/></g></svg><svg width="18" height="18" viewBox="-1 -1 18 18" id="icon-down-pdf-active" x="464" y="180"><title>开发者资源 copy 7</title><g fill="#00a4ff" fill-rule="evenodd"><path d="M0 16h16V0H0v16zM2 2h12v12H2V2z"/><path d="M11.022 9.99c.302.03.826.195.989.447a.26.26 0 0 1 .032.24c-.034.102-.134.146-.19.163a.49.49 0 0 1-.432-.078 17.636 17.636 0 0 1-.873-.81c.142.01.308.023.474.039m-3.243-.673c-.173.037-.494.117-.751.18.1-.151.224-.353.354-.6a5.96 5.96 0 0 0 .363-.851c.14.234.331.548.429.684.091.126.251.322.377.473a7.506 7.506 0 0 0-.772.114M7.66 3.912c.228.1.173.655.143.959-.008.08-.015.15-.017.202-.004.133-.08.39-.158.623-.105-.345-.237-.833-.25-1.138-.023-.535.206-.63.282-.646M4.598 11.74c-.236.288-.569.446-.646.403-.014-.043.034-.25.318-.527.178-.176.477-.326.722-.43a7.573 7.573 0 0 1-.394.554m5.094-2.714a26.151 26.151 0 0 1-.899-.992c-.355-.416-.628-1-.705-1.171.608-1.832.694-3.035.257-3.575a.776.776 0 0 0-.724-.281c-.558.064-1.124.72-1.063 1.67.051.792.563 2.09.677 2.369-.07.198-.331.927-.608 1.498-.277.57-.781 1.243-.911 1.413-.288.068-1.635.419-2.312 1.225-.426.507-.522 1.043-.255 1.433.172.253.463.39.796.39.142 0 .291-.025.442-.075.905-.305 1.803-1.97 1.966-2.287.198-.08.967-.381 1.631-.49a11.897 11.897 0 0 1 1.241-.141c.197.323 1 1.519 2.227 1.806.745.17 1.275-.255 1.464-.761.204-.542.061-1.278-.608-1.633-.95-.504-2.288-.426-2.616-.398"/></g></svg><svg id="icon-download" width="18" height="18" viewBox="-1 -1 18 18" x="364" y="330"><style>.bust0{fill-rule:evenodd;clip-rule:evenodd;fill:#00a4ff}</style><g id="buXMLID_2_"><g id="buXMLID_38_"><path id="buXMLID_39_" class="bust0" d="M1 1v15h13V1H1zm12 14H2V2h11v13zm-2.5-5.7l-.7-.8L8 10.4V4H7v6.4L5.3 8.5l-.8.8 3 3.2 3-3.2z"/></g></g></svg><svg width="18" height="18" viewBox="-1 -1 18 18" id="icon-download2-#00a4ff" x="330" y="364"><style>.bvst0{fill-rule:evenodd;clip-rule:evenodd;fill:#00a4ff}</style><path class="bvst0" d="M11 7H9V1H7v6H5l3 4 3-4zm1 3v2H4v-2H2v4h12v-4h-2z"/></svg><svg width="18" height="18" viewBox="-1 -1 18 18" id="icon-download2-#666666" x="348" y="364"><style>.bwst0{fill-rule:evenodd;clip-rule:evenodd;fill:#666}</style><path class="bwst0" d="M11 7H9V1H7v6H5l3 4 3-4zm1 3v2H4v-2H2v4h12v-4h-2z"/></svg><svg id="icon-next" width="11" height="16" viewBox="-1 -1 11 16" x="464" y="268"><style>.bxst0{fill:#7f7f7f}</style><g id="bxXMLID_2_"><g id="bxXMLID_22_"><path id="bxXMLID_24_" class="bxst0" d="M9 7L7.6 5.6 1.9 0 .5 1.4 6.2 7 .5 12.6 1.9 14l5.7-5.6z"/></g></g></svg><svg id="icon-prev" width="11" height="16" viewBox="-1 -1 11 16" x="464" y="252"><style>.byst0{fill:#7f7f7f}</style><g id="byXMLID_2_"><g id="byXMLID_22_"><path id="byXMLID_24_" class="byst0" d="M0 7l1.4 1.4L7.1 14l1.4-1.4L2.8 7l5.7-5.6L7.1 0 1.4 5.6z"/></g></g></svg><svg id="icon-question" width="20" height="20" viewBox="-1 -1 20 20" x="396" y="374"><style>.bzst0{fill:#00a4ff}</style><g id="bzXMLID_15_"><g id="bzXMLID_76_"><path id="bzXMLID_77_" class="bzst0" d="M4 9h2V7H4v2zm4 0h2V7H8v2zm4 0h2V7h-2v2zm4-7H2C.9 2 0 2.9 0 4v8c0 1.1.9 2 2 2v3.1c0 .4.2.7.6.9h.3c.3 0 .5-.1.7-.3L6.7 14H16c1.1 0 2-.9 2-2V4c0-1.1-.9-2-2-2zm1 10c0 .6-.4 1-1 1H6.3l-.9 1.1L3 16.8V13H2c-.6 0-1-.4-1-1V4c0-.6.4-1 1-1h14c.6 0 1 .4 1 1v8z"/></g></g></svg><svg id="icon-video" width="18" height="18" viewBox="-1 -1 18 18" x="120" y="430"><style>.cast0{fill-rule:evenodd;clip-rule:evenodd;fill:#00a4ff}</style><g id="caXMLID_6_"><g id="caXMLID_37_"><path id="caXMLID_38_" class="cast0" d="M8.5 1C4.4 1 1 4.4 1 8.5S4.4 16 8.5 16 16 12.6 16 8.5 12.6 1 8.5 1zm0 14C4.9 15 2 12.1 2 8.5S4.9 2 8.5 2 15 4.9 15 8.5 12.1 15 8.5 15z"/></g></g><path id="caXMLID_366_" class="cast0" d="M7 6v5l4-2.5z"/></svg><svg id="income-expenses" viewBox="-1 -1 66 66" width="66" height="66" x="198" y="264"><style>.cbst0{fill-rule:evenodd;clip-rule:evenodd;fill:#757a80}</style><g id="cbXMLID_11_"><g id="cbXMLID_98_"><path id="cbXMLID_99_" class="cbst0" d="M21 28h2v-2h-2v2zm0 7h2v-2h-2v2zm5 7h17v-2H26v2zm-5 0h2v-2h-2v2zM43 8V6H21v2H11v48h42V8H43zM23 8h18v4H23V8zm28 46H13V10h8v4h22v-4h8v44zM26 28h17v-2H26v2zm0 7h17v-2H26v2z"/></g></g></svg><svg id="income-expenses-hover" viewBox="-1 -1 66 66" width="66" height="66" x="264" y="264"><style>.ccst0{fill:url(#ccXMLID_2_)}</style><g id="ccXMLID_11_"><g id="ccXMLID_98_"><linearGradient id="ccXMLID_2_" gradientUnits="userSpaceOnUse" x1="47.642" y1="59.093" x2="16.358" y2="4.907"><stop offset="0" stop-color="#0063ff"/><stop offset="1" stop-color="#00c8de"/></linearGradient><path id="ccXMLID_99_" class="ccst0" d="M21 28h2v-2h-2v2zm0 7h2v-2h-2v2zm5 7h17v-2H26v2zm-5 0h2v-2h-2v2zM43 8V6H21v2H11v48h42V8H43zM23 8h18v4H23V8zm28 46H13V10h8v4h22v-4h8v44zM26 28h17v-2H26v2zm0 7h17v-2H26v2z"/></g></g></svg><svg id="invoice" viewBox="-1 -1 66 66" width="66" height="66" x="330"><style>.cdst0{fill-rule:evenodd;clip-rule:evenodd;fill:#757a80}</style><g id="cdXMLID_108_"><path id="cdXMLID_109_" class="cdst0" d="M44 36h-2v2h2v-2zm0 8h-2v2h2v-2zm0-4h-2v2h2v-2zm0-8h-2v2h2v-2zm0-4h-2v2h2v-2zM9 37h16v-2H9v2zM2 51h50V23H2v28zm2-26h38v1h2v-1h6v24h-6v-1h-2v1H4V25zm5 17h12v-2H9v2zM7 20h48v24h2V18H7v2zm5-7v2h48v24h2V13H12zM9 32h22v-2H9v2z"/></g></svg><svg id="invoice-hover" viewBox="-1 -1 66 66" width="66" height="66" x="330" y="66"><style>.cest0{fill:url(#ceXMLID_2_)}</style><g id="ceXMLID_108_"><linearGradient id="ceXMLID_2_" gradientUnits="userSpaceOnUse" x1="45.227" y1="54.91" x2="18.773" y2="9.09"><stop offset="0" stop-color="#0063ff"/><stop offset="1" stop-color="#00c8de"/></linearGradient><path id="ceXMLID_109_" class="cest0" d="M44 36h-2v2h2v-2zm0 8h-2v2h2v-2zm0-4h-2v2h2v-2zm0-8h-2v2h2v-2zm0-4h-2v2h2v-2zM9 37h16v-2H9v2zM2 51h50V23H2v28zm2-26h38v1h2v-1h6v24h-6v-1h-2v1H4V25zm5 17h12v-2H9v2zM7 20h48v24h2V18H7v2zm5-7v2h48v24h2V13H12zM9 32h22v-2H9v2z"/></g></svg><svg id="menu-icon" width="18" height="18" viewBox="-1 -1 18 18" x="210" y="430"><style>.cfst0{fill:#666}</style><path class="cfst0" d="M2 3v2h12V3H2zm0 6h12V7H2v2zm0 4h12v-2H2v2z"/></svg><svg width="18" height="18" viewBox="-1 -1 18 18" id="menu-icon-#00a4ff" x="228" y="430"><style>.cgst0{fill:#00a4ff}</style><path class="cgst0" d="M2 3v2h12V3H2zm0 6h12V7H2v2zm0 4h12v-2H2v2z"/></svg><svg id="ppt-full-screen" width="18" height="18" viewBox="-1 -1 18 18" x="246" y="430"><style>.chst0{fill-rule:evenodd;clip-rule:evenodd;fill:#00a4ff}</style><g id="chXMLID_18_"><g id="chXMLID_126_"><path id="chXMLID_127_" class="chst0" d="M4 2V1H1v3h1V3h1V2h1zm0 2v1h1V4H4zm1 2h1V5H5v1zM3 3v1h1V3H3zm8-2v1h1v1h1v1h1V1h-3zM9 6h1V5H9v1zm1-1h1V4h-1v1zm1-1h1V3h-1v1zm2 8h-1v1h-1v1h3v-3h-1v1zm-2-1v1h1v-1h-1zM9 9v1h1V9H9zm1 1v1h1v-1h-1zm-8 1H1v3h3v-1H3v-1H2v-1zm1 1h1v-1H3v1zm2-2h1V9H5v1zm-1 1h1v-1H4v1z"/></g></g></svg><svg id="ppt-lecturer" width="18" height="18" viewBox="-1 -1 18 18" x="138" y="430"><style>.cist0{fill-rule:evenodd;clip-rule:evenodd;fill:#666}</style><g id="ciXMLID_7_"><g id="ciXMLID_64_"><path id="ciXMLID_65_" class="cist0" d="M5 8h5V7H5v1zM0 1v13h15V1H0zm14 12H1V2h13v11zm-3-8H4v1h7V5zm-5 5h3V9H6v1z"/></g></g></svg><svg width="18" height="18" viewBox="-1 -1 18 18" id="ppt-lecturer-#00a4ff" x="282" y="430"><style>.cjst0{fill-rule:evenodd;clip-rule:evenodd;fill:#00a4ff}</style><path class="cjst0" d="M5 8h5V7H5v1zM0 1v13h15V1H0zm14 12H1V2h13v11zm-3-8H4v1h7V5zm-5 5h3V9H6v1z"/></svg><svg id="ppt-list" width="18" height="18" viewBox="-1 -1 18 18" x="300" y="430"><style>.ckst0{fill-rule:evenodd;clip-rule:evenodd;fill:#666}</style><g id="ckXMLID_2_"><g id="ckXMLID_50_"><path id="ckXMLID_51_" class="ckst0" d="M0 1v13h15V1H0zm1 1h4v2H1V2zm0 3h4v2H1V5zm0 3h4v2H1V8zm0 5v-2h4v2H1zm13 0H6V2h8v11z"/></g></g></svg><svg width="18" height="18" viewBox="-1 -1 18 18" id="ppt-list-#00a4ff" x="318" y="430"><style>.clst0{fill-rule:evenodd;clip-rule:evenodd;fill:#00a4ff}</style><path class="clst0" d="M0 1v13h15V1H0zm1 1h4v2H1V2zm0 3h4v2H1V5zm0 3h4v2H1V8zm0 5v-2h4v2H1zm13 0H6V2h8v11z"/></svg><svg id="ppt-pause" width="18" height="18" viewBox="-1 -1 18 18" x="336" y="430"><style>.cmst0{fill-rule:evenodd;clip-rule:evenodd;fill:#00a4ff}</style><g id="cmXMLID_4_"><g id="cmXMLID_29_"><path id="cmXMLID_30_" class="cmst0" d="M5 12h2V3H5v9zm4-9v9h2V3H9z"/></g></g></svg><svg id="ppt-play" width="18" height="18" viewBox="-1 -1 18 18" x="390" y="430"><style>.cnst0{fill-rule:evenodd;clip-rule:evenodd;fill:#00a4ff}</style><path id="cnXMLID_2_" class="cnst0" d="M4 2.5v11l8-5.6-8-5.4z"/></svg><svg id="prod-ai" width="34" height="34" viewBox="-1 -1 34 34" x="396"><style>.cost0{fill:#757a80}</style><g id="coXMLID_57_"><path id="coXMLID_58_" class="cost0" d="M17 9.1v-2c-.3-.1-.7-.1-1-.1-5 0-9 4-9 9 0 2.8 1.3 5.4 3.4 7l.3-.3 6.3-6.3V9.1zm-2 6.5l-4.6 4.6C9.5 19 9 17.6 9 16c0-3.5 2.6-6.4 6-6.9v6.5zm10 .4c0-3.9-2.5-7.2-6-8.5v2.2c2.4 1.1 4 3.5 4 6.3 0 3.9-3.1 7-7 7-.8 0-1.6-.2-2.3-.4l-1.5 1.5c1.2.6 2.5.9 3.9.9 4.9 0 8.9-4 8.9-9zm4-7.4l-1.5 1.5c.9 1.8 1.4 3.8 1.4 5.9 0 7.2-5.8 13-13 13-2.1 0-4.1-.5-5.9-1.4v-.2c0-1.1-.9-2-2-2s-2 .9-2 2 .9 2 2 2c.3 0 .5-.1.7-.1 2.3 1 4.7 1.7 7.3 1.7 8.3 0 15-6.7 15-15 0-2.7-.7-5.2-2-7.4zM16 3c2.1 0 4.1.5 5.9 1.4 0 1.1.9 2 2 2s2-.9 2-2-.9-2-2-2c-.3 0-.7.1-1 .3C20.9 1.6 18.5 1 16 1 7.7 1 1 7.7 1 16c0 2.7.7 5.2 2 7.4l1.5-1.5C3.5 20.1 3 18.1 3 16 3 8.8 8.8 3 16 3z"/></g></svg><svg width="34" height="34" viewBox="-1 -1 34 34" id="prod-ai-base" x="396" y="34"><defs><style>.cpcls-1{fill:#fff}.cpcls-2{fill:#757a80;fill-rule:evenodd}</style></defs><title>Icons</title><path class="cpcls-1" d="M-790-20h894v603h-894z" id="cp图层_2" data-name="图层 2"/><path class="cpcls-2" d="M4.72 6H28v15h2V4H4.72a2 2 0 1 0 0 2zM29 25a2 2 0 0 0-1.72 1H4V11H2v17h25.28A2 2 0 1 0 29 25zM9 20a2 2 0 0 0 3.72 1h6.55a2 2 0 1 0 2.1-3l-3.76-5.88a2 2 0 1 0-3.22 0L10.72 18A2 2 0 0 0 9 20zm7-6.61l3.43 5.37a2.14 2.14 0 0 0-.14.24H12.7a2.14 2.14 0 0 0-.1-.19z" id="cp图层_1" data-name="图层 1"/></svg><svg width="34" height="34" viewBox="-1 -1 34 34" id="prod-ai-platform" x="430" y="306"><defs><style>.cqcls-1{fill:#fff}.cqcls-2{fill:#757a80;fill-rule:evenodd}</style></defs><title>Icons</title><path class="cqcls-1" d="M-738-20h894v603h-894z" id="cq图层_2" data-name="图层 2"/><path class="cqcls-2" d="M4.72 6H28v15h2V4H4.72a2 2 0 1 0 0 2zM29 25a2 2 0 0 0-1.72 1H4V11H2v17h25.28A2 2 0 1 0 29 25zm-6-13a2 2 0 0 0-3.72-1h-6.56a2 2 0 1 0-2.1 3l3.76 5.88a2 2 0 1 0 3.22 0L21.28 14A2 2 0 0 0 23 12zm-7 6.61l-3.43-5.37a2.12 2.12 0 0 0 .14-.24h6.59a2.16 2.16 0 0 0 .1.19z" id="cq图层_1" data-name="图层 1"/></svg><svg width="34" height="34" viewBox="-1 -1 34 34" id="prod-app" x="396" y="102"><defs><style>.crcls-1{fill:#fff}.crcls-2{fill:#757a80;fill-rule:evenodd}</style></defs><title>Icons</title><path class="crcls-1" d="M-842-20H52v603h-894z" id="cr图层_2" data-name="图层 2"/><path class="crcls-2" d="M4.72 6H28v15h2V4H4.72a2 2 0 1 0 0 2zM29 25a2 2 0 0 0-1.72 1H4V11H2v17h25.28A2 2 0 1 0 29 25zm-6.27-5h-9l-1.14 2h9zm-5.58-10h-2.29l4.55 8h2.3zm-3.44 2l-4.5 7.87 1.14 2L14.86 14z" id="cr图层_1" data-name="图层 1"/></svg><svg width="34" height="34" viewBox="-1 -1 34 34" id="prod-big-data-base" x="396" y="136"><defs><style>.cscls-1{fill:#fff}.cscls-2{fill:#757a80;fill-rule:evenodd}</style></defs><title>Icons</title><path class="cscls-1" d="M-634-20h894v603h-894z" id="cs图层_2" data-name="图层 2"/><path class="cscls-2" d="M4.72 6H28v15h2V4H4.72a2 2 0 1 0 0 2zM20 13h-2v2h2zm4 10V9H8v14zm-14-8h6v-2h-6v-2h12v6h-6v2h6v2H10zm19 10a2 2 0 0 0-1.72 1H4V11H2v17h25.28A2 2 0 1 0 29 25zm-17-6h2v-2h-2z" id="cs图层_1" data-name="图层 1"/></svg><svg width="34" height="34" viewBox="-1 -1 34 34" id="prod-big-data-visual" x="396" y="170"><defs><style>.ctcls-1{fill:#fff}.ctcls-2{fill:#757a80;fill-rule:evenodd}</style></defs><title>Icons</title><path class="ctcls-1" d="M-686-20h894v603h-894z" id="ct图层_2" data-name="图层 2"/><path class="ctcls-2" d="M29 29a2 2 0 0 1-1.72-1H2V11h2v15h23.28A2 2 0 1 1 29 29zM19 13h5v9h1v2H6v-2h1v-5h5v5h1V10h5v12h1v-9zm2 9h1v-7h-1zm-11-3H9v3h1zm5-7v10h1V12zm13-6H4.72a2 2 0 1 1 0-2H30v17h-2z" id="ct图层_1" data-name="图层 1"/></svg><svg id="prod-cdn" width="34" height="34" viewBox="-1 -1 34 34" x="396" y="204"><style>.cust0{fill-rule:evenodd;clip-rule:evenodd;fill:#757a80}</style><g id="cuXMLID_16_"><g id="cuXMLID_100_"><path id="cuXMLID_101_" class="cust0" d="M29.6 7.8L16 0v2l11.9 6.8 1.7-1zM16 24l7-4v-8l-7-4v2l5.2 3-5.2 3-5.2-3 5.2-3V8l-7 4v8l7 4v-1 1zm1-6.6l4-2.3v4l-4 2.3v-4zm-2 4l-4-2.3v-4l4 2.3v4zM4 8.9L16 2V0L2 8v16l14 8v-2L4 23.1V8.9zM30 22V11.6l-2 1.1v10.4L16 30v2l14-8v-2z"/></g></g></svg><svg width="34" height="34" viewBox="-1 -1 34 34" id="prod-cdn-speed" x="396" y="238"><defs><style>.cvcls-1{fill:#fff}.cvcls-2{fill:#757a80}</style></defs><title>Icons</title><path class="cvcls-1" d="M-218-20h894v603h-894z" id="cv图层_2" data-name="图层 2"/><g id="cv图层_1" data-name="图层 1"><g id="cv_编组_" data-name="&amp;lt;编组&amp;gt;"><g id="cv_编组_2" data-name="&amp;lt;编组&amp;gt;"><path id="cv_复合路径_" data-name="&amp;lt;复合路径&amp;gt;" class="cvcls-2" d="M28 22.84L16 29.7 4 22.84V9.16L16 2.3l12 6.86L30 8 16 0 2 8v16l14 8 14-8V12l-2 1.14zM9 20l7 4v-8l-7-4zm2-4.55l3 1.71v3.39l-3-1.71zM24 20v-8l-7-4v2.3l5 2.86v5.7zm-4 2v-8l-7-4v2.3l5 2.86v5.7z"/></g></g></g></svg><svg id="prod-cloud" width="34" height="34" viewBox="-1 -1 34 34" x="396" y="272"><style>.cwst0{fill:#757a80}</style><g id="cwXMLID_65_"><path id="cwXMLID_66_" class="cwst0" d="M4 8.9L16 2V0L2 8v16l14 8v-2L4 23.1V8.9zM30 22V11.6l-2 1.1v10.4L16 30v2l14-8v-2zm-.4-14.2L16 0v2l11.9 6.8 1.7-1zM8 18c0 2.2 1.8 4 4 4h8c2.2 0 4-1.8 4-4 0-1.9-1.3-3.4-3-3.9V14c0-2.8-2.2-5-5-5s-5 2.2-5 5v.1c-1.7.5-3 2-3 3.9zm3.5-1.9l1.5-.4v-1.8c0-1.6 1.4-2.9 3-2.9s2.9 1.3 3 2.9v1.8l1.5.4c.9.2 1.5 1 1.5 1.9 0 1.1-.9 2-2 2h-8c-1.1 0-2-.9-2-2 0-.9.6-1.7 1.5-1.9z"/></g></svg><svg width="34" height="34" viewBox="-1 -1 34 34" id="prod-communication" x="396" y="306"><defs><style>.cxcls-1{fill:#fff}.cxcls-2,.cxcls-3{fill:#757a80}.cxcls-2{fill-rule:evenodd}</style></defs><title>Icons</title><path class="cxcls-1" d="M-426-20h894v603h-894z" id="cx图层_2" data-name="图层 2"/><g id="cx图层_1" data-name="图层 1"><path class="cxcls-2" d="M27 25V1H5v30h22v-2H7V3h18v22zm-4-14h-2v4H9l4 4v-2h10zm-4-6v2H9v6h2V9h12zm-1 19v-2h-4v2z" id="cx_编组_" data-name="&amp;lt;编组&amp;gt;"/><path class="cxcls-3" d="M13 11h2v2h-2zm4 0h2v2h-2z"/></g></svg><svg id="prod-compute" width="34" height="34" viewBox="-1 -1 34 34" x="396" y="340"><style>.cyst0{fill-rule:evenodd;clip-rule:evenodd;fill:#757a80}</style><g id="cyXMLID_15_"><g id="cyXMLID_62_"><path id="cyXMLID_63_" class="cyst0" d="M16 29C8.8 29 3 23.2 3 16S8.8 3 16 3c6.5 0 11.9 4.8 12.8 11h2C29.9 6.7 23.6 1 16 1 7.7 1 1 7.7 1 16s6.7 15 15 15c7.6 0 13.9-5.7 14.9-13h-2c-1 6.2-6.4 11-12.9 11zm0-11v-2l-5.3-3 5.3-3V8l-7 4v8l3.2 1.8c.2-.6.5-1.1.9-1.5L11 19.1v-4l5 2.9zm7-4v-2l-7-4v2l5.3 3-5.3 3v2l5-2.9v4l-3.9 2.2c-.3-.2-.7-.3-1.1-.3-1.1 0-2 .9-2 2s.9 2 2 2 2-.9 2-2v-.1l5-2.9v-6z"/></g></g></svg><svg width="34" height="34" viewBox="-1 -1 34 34" id="prod-data-process" y="396"><path fill="#757A80" d="M0 2.984v2.01h30.086v18.059h2.078V2.984H0zM2.078 8.98H0v20.035h32.082v-2H2.078V8.98zm8.978 4.021h15.077L22.111 8.98v2.01H11.056c-1.608 0-3.016 1.407-3.016 3.015s1.408 3.016 3.016 3.016h3.015v-2.01h-3.015c-.603 0-1.005-.403-1.005-1.005s.403-1.005 1.005-1.005zm-1.005 10.052v-2.012h11.057c1.607 0 3.016-1.406 3.016-3.016 0-1.607-1.408-3.014-3.016-3.014h-3.016v2.01h3.016c.602 0 1.004.402 1.004 1.004 0 .604-.402 1.006-1.004 1.006H6.031l4.02 4.022z"/></svg><svg id="prod-database" width="34" height="34" viewBox="-1 -1 34 34" x="34" y="396"><style>.dast0{fill:#757a80}</style><g id="daXMLID_2_"><g id="daXMLID_110_"><path id="daXMLID_111_" class="dast0" d="M5 25H3c0 2.5 4.4 4.6 10.2 4.9-.4-.6-.7-1.3-1-2.1C8.1 27.5 5 26.4 5 25zm10.6-6H15c-5.5 0-10-1.3-10-3V9.8c2.1 1.3 5.8 2.2 10 2.2s7.9-.9 10-2.2v4.5c.7.2 1.4.5 2 .8V7c0-2.8-5.4-5-12-5S3 4.2 3 7v18h2v-6.2c2 1.3 5.3 2.1 9.2 2.2.3-.3.7-.6 1.1-.9 0-.4.2-.7.3-1.1zM15 4c5.5 0 10 1.3 10 3s-4.5 3-10 3S5 8.7 5 7s4.5-3 10-3zm13 18.1V22c0-2.8-2.2-5-5-5s-5 2.2-5 5v.1c-1.7.4-3 2-3 3.9 0 2.2 1.8 4 4 4h8c2.2 0 4-1.8 4-4 0-1.9-1.3-3.4-3-3.9zM27 28h-8c-1.1 0-2-.9-2-2 0-.9.6-1.7 1.5-1.9l1.5-.4v-1.8c0-1.6 1.4-2.9 3-2.9s2.9 1.3 3 2.9v1.8l1.5.4c.9.2 1.5 1 1.5 1.9 0 1.1-.9 2-2 2z"/></g></g></svg><svg id="prod-developer-tools" width="34" height="34" viewBox="-1 -1 34 34" x="68" y="396"><style>.dbst0{fill-rule:evenodd;clip-rule:evenodd;fill:#757a80}</style><g id="dbXMLID_59_"><path id="dbXMLID_60_" class="dbst0" d="M31 22V4H1v24h30v-2H3V11h26v11h2zM3 9V6h26v3H3zm7 6l-2 3 2 3h2l-2-3 2-3h-2zm12 6l2-3-2-3h-2l2 3-2 3h2zm-6 1l2-8h-2l-2 8h2z"/></g></svg><svg id="prod-domain" width="34" height="34" viewBox="-1 -1 34 34" x="102" y="396"><style>.dcst0{fill-rule:evenodd;clip-rule:evenodd;fill:#757a80}</style><g id="dcXMLID_92_"><path id="dcXMLID_93_" class="dcst0" d="M31 22V4H1v24h30v-2H3V11h26v11h2zM3 9V6h26v3H3zm24 12v-4c0-1.1-.9-2-2-2h-4c-1.1 0-2 .9-2 2v4h2v-4h1v4h2v-4h1v4h2zM7 21v-2H5v2h2zm11-2v-2c0-1.1-.9-2-2-2h-1c-1.1 0-2 .9-2 2v2c0 1.1.9 2 2 2h1c1.1 0 2-.9 2-2zm-3 0v-2h1v2h-1zm-5-2h2v-2h-2c-1.1 0-2 .9-2 2v2c0 1.1.9 2 2 2h2v-2h-2v-2z"/></g></svg><svg width="34" height="34" viewBox="-1 -1 34 34" id="prod-game-service" x="136" y="396"><path fill-rule="evenodd" clip-rule="evenodd" fill="#747A80" d="M0 3v2h30v18h2V3H0zm2 6H0v20h32v-2H2V9zm8 2v4H6v2h4v4h2v-4h4v-2h-4v-4h-2zm10 4v2h2v-2h-2zm4 0v2h2v-2h-2z"/></svg><svg id="prod-iot-hub" width="34" height="34" viewBox="-1 -1 34 34" x="170" y="396"><style>.dest0{fill:#757a80}</style><g id="deXMLID_36_"><path id="deXMLID_39_" class="dest0" d="M16 29C8.8 29 3 23.2 3 16S8.8 3 16 3c6.5 0 11.9 4.8 12.8 11h2C29.9 6.7 23.6 1 16 1 7.7 1 1 7.7 1 16s6.7 15 15 15c7.6 0 13.9-5.7 14.9-13h-2c-1 6.2-6.4 11-12.9 11z"/><path class="dest0" d="M13.2 20.2L8.9 16l4.3-4.2 5.6 5.6 1.4-1.4-7-7.1L6.1 16l7.1 7.1 2.8-2.9-1.4-1.4z"/><path class="dest0" d="M18.8 11.8l4.3 4.2-4.3 4.2-5.6-5.6-1.4 1.4 7 7.1 7.1-7.1-7.1-7.1-2.8 2.9 1.4 1.4z"/></g></svg><svg id="prod-middleware" width="34" height="34" viewBox="266 51 34 34" x="204" y="396"><style>.st0{opacity:.2;fill:#fff}.st1{enable-background:new}.st2{fill:#0085f6}.st3{fill:url(#SVGID_1_)}.st4{fill:url(#SVGID_2_)}.st5{fill:url(#SVGID_3_)}.st6{fill:#00a4ff}.dfst7{fill:#757a80}.st8{fill-rule:evenodd;clip-rule:evenodd;fill:#00a4ff}.st9{fill:#2274e5}.st10{fill:url(#SVGID_4_)}</style><path class="dfst7" d="M269 58v15h2V59l3-3h23v-2h-24l-4 4z"/><path class="dfst7" d="M297 59h-2v18l-3 3h-18l-3-3v-4h-2v5l4 4h20l4-4z"/><path class="dfst7" d="M290 67v-6h-14v6h4l-1 1v2h9v4h2v-6h-4l1-1v-2h-9v-2h10v4h2zm-8 0h3l-1 1h-3l1-1z"/><path class="dfst7" d="M276 68v6h8.5l1.5 2h2l-3-4h-7v-4z"/></svg><svg id="prod-mobile" width="34" height="34" viewBox="-1 -1 34 34" x="238" y="396"><style>.dgst0{fill-rule:evenodd;clip-rule:evenodd;fill:#757a80}</style><g id="dgXMLID_51_"><path id="dgXMLID_52_" class="dgst0" d="M14 25h4v-2h-4v2zm13 0V1H5v30h22v-2H7V3h18v22h2zM15 14v2h2v-2h-2zm4.7-2.3c-.9-1-2.2-1.7-3.7-1.7s-2.8.7-3.7 1.7l1.5 1.3c.5-.6 1.3-1 2.2-1s1.7.4 2.2 1l1.5-1.3zm1.5-1.4L22.7 9c-1.6-1.8-4-3-6.7-3s-5 1.2-6.7 3l1.5 1.3C12.1 8.9 13.9 8 16 8s3.9.9 5.2 2.3z"/></g></svg><svg width="34" height="34" viewBox="-1 -1 34 34" id="prod-mobile-base" x="272" y="396"><defs><style>.dhcls-1{fill:#fff}.dhcls-2{fill:#757a80;fill-rule:evenodd}</style></defs><title>Icons</title><path class="dhcls-1" d="M-374-20h894v603h-894z" id="dh图层_2" data-name="图层 2"/><path class="dhcls-2" d="M27 25V1H5v30h22v-2H7V3h18v22zm-13 0h4v-2h-4zm1-11v2h2v-2zm6.18-3.67L22.68 9A9 9 0 0 0 9.32 9l1.5 1.35a6.92 6.92 0 0 1 10.37 0zm-1.48 1.34a4.95 4.95 0 0 0-7.41 0L13.78 13a3 3 0 0 1 4.44 0z" id="dh图层_1" data-name="图层 1"/></svg><svg id="prod-monitor" width="34" height="34" viewBox="-1 -1 34 34" x="306" y="396"><style>.dist0{fill:#757a80}</style><g id="diXMLID_44_"><path id="diXMLID_45_" class="dist0" d="M16 31zm1.8-15.8l2.5-3.5c.3-.4.2-1.1-.2-1.4-.4-.3-1.1-.2-1.4.2L16.2 14H16c-1.1 0-2 .9-2 2s.9 2 2 2 2-.9 2-2c0-.3-.1-.6-.2-.8zm7.2.8h2c0-6.1-4.9-11-11-11S5 9.9 5 16h2c0-5 4-9 9-9s9 4 9 9zM16 1C7.7 1 1 7.7 1 16c0 7.6 5.7 13.9 13 14.9v-2C7.8 27.9 3 22.5 3 16 3 8.8 8.8 3 16 3s13 5.8 13 13c0 6.5-4.8 11.9-11 12.8v2c7.3-1 13-7.2 13-14.9C31 7.7 24.3 1 16 1z"/></g></svg><svg id="prod-network" width="34" height="34" viewBox="-1 -1 34 34" x="340" y="396"><style>.djst0{fill-rule:evenodd;clip-rule:evenodd;fill:#747a81}</style><g id="djXMLID_63_"><path id="djXMLID_64_" class="djst0" d="M20 14.1v3.8c.7 0 1.4-.1 2-.2v-3.4c-.7-.1-1.3-.1-2-.2zM16 1C7.7 1 1 7.7 1 16s6.7 15 15 15 15-6.7 15-15S24.3 1 16 1zm12.6 11.7c-1.7-1-4.1-1.8-7-2.3-.5-2.9-1.3-5.3-2.3-7 4.5 1.2 8.1 4.8 9.3 9.3zM3.4 19.3c1.3.8 3 1.4 4.9 1.9-.1-.6-.2-1.3-.2-2C5 18.5 3 17.3 3 16c0-1.3 2-2.5 5.1-3.2.1-.7.1-1.3.2-2-2 .5-3.7 1.1-4.9 1.9 1.2-4.6 4.8-8.1 9.3-9.3C11.1 6.1 10 10.7 10 16s1.1 9.9 2.7 12.6c-4.5-1.2-8.1-4.8-9.3-9.3zm15.9 9.3c1-1.7 1.8-4.1 2.3-7 2.9-.5 5.3-1.3 7-2.3-1.2 4.5-4.8 8.1-9.3 9.3zm9.6-12.1c0 .1-.1.2-.1.3v.1l-.3.3-.1.1c-.1.1-.2.1-.3.2-.1 0-.1.1-.2.1-.1.1-.2.2-.4.2-.1.1-.2.1-.3.2-.1.1-.2.1-.3.2-.1.1-.2.1-.3.2-.1 0-.2.1-.3.1-.5.2-1 .4-1.5.5h-.2c-.6.2-1.3.3-2 .5-.3 0-.5.1-.8.1-.6.1-1.3.2-2 .3-.5.1-1.1.1-1.7.1h-4c.1.7.2 1.4.3 2h1.5c1.2 0 2.4-.1 3.6-.2-.7 4.3-2 7.2-3.6 7.2-2.2 0-4-5.8-4-13s1.8-13 4-13c1.6 0 2.9 2.9 3.6 7.2-1.1-.1-2.3-.2-3.5-.2h-1.5c-.1.6-.2 1.3-.3 2h4c.6 0 1.1.1 1.7.1.7.1 1.4.2 2 .3.3 0 .5.1.8.1.7.1 1.4.3 2 .5h.2c.6.2 1.1.3 1.5.5.1 0 .2.1.3.1.1 0 .2.1.3.2.1.1.2.1.3.2.1.1.2.1.3.2.1.1.3.2.4.2.1 0 .1.1.2.1.1.1.2.1.3.2l.1.1.3.3v.1c.1.1.1.2.1.3v.1c0 .1.1.2.1.4s0 .2-.1.4c-.1 0-.1 0-.1.1z"/></g></svg><svg id="prod-other" width="34" height="34" viewBox="-1 -1 34 34" x="374" y="396"><style>.dkst0{fill-rule:evenodd;clip-rule:evenodd;fill:#757a80}</style><g id="dkXMLID_51_"><path id="dkXMLID_52_" class="dkst0" d="M16 14c-1.1 0-2 .9-2 2s.9 2 2 2 2-.9 2-2-.9-2-2-2zm0-13C7.7 1 1 7.7 1 16c0 7.6 5.7 13.9 13 14.9v-2C7.8 27.9 3 22.5 3 16 3 8.8 8.8 3 16 3s13 5.8 13 13c0 6.5-4.8 11.9-11 12.8v2c7.3-1 13-7.2 13-14.9C31 7.7 24.3 1 16 1zM8 16c0 1.1.9 2 2 2s2-.9 2-2-.9-2-2-2-2 .9-2 2zm8 15zm8-15c0-1.1-.9-2-2-2s-2 .9-2 2 .9 2 2 2 2-.9 2-2z"/></g></svg><svg width="34" height="34" viewBox="-1 -1 34 34" id="prod-pic" x="430"><defs><style>.dlcls-1{fill:#fff}.dlcls-2{fill:#757a80;fill-rule:evenodd}</style></defs><title>Icons</title><path class="dlcls-1" d="M-530-20h894v603h-894z" id="dl图层_2" data-name="图层 2"/><g id="dl图层_1" data-name="图层 1"><path class="dlcls-2" d="M18.5 18.63L14 13 6 23h2.56L14 16.2l4.5 5.62 2-2.5L23.44 23H26l-5.5-6.87zM21 10v3h3v-3zm8 15a2 2 0 0 0-1.72 1H4V11H2v17h25.28A2 2 0 1 0 29 25zM4.72 6H28v15h2V4H4.72a2 2 0 1 0 0 2z" id="dl_编组_" data-name="&amp;lt;编组&amp;gt;"/></g></svg><svg id="prod-quanta" width="34" height="34" viewBox="266 944 34 34" x="430" y="34"><style>.st0,.st1{opacity:.2;fill:#00a4ff}.st1{fill:#fff}.st2{enable-background:new}.st3{fill:#0085f6}.st4{fill:url(#SVGID_1_)}.st5{fill:url(#SVGID_2_)}.st6{fill:#00a4ff}.st7{fill:#757a80}.st8{fill-rule:evenodd;clip-rule:evenodd;fill:#00a4ff}.st9{fill:#2274e5}.st10{fill:url(#SVGID_3_)}.st11{fill:#00a4ff}.st12,.st13{fill-rule:evenodd;clip-rule:evenodd;fill:url(#SVGID_4_)}.st13{fill:url(#SVGID_5_)}.st14{fill:url(#SVGID_6_)}.st15{fill:url(#SVGID_7_)}.st16{fill:url(#SVGID_8_)}.st17{fill:url(#SVGID_9_)}.st18{fill:url(#SVGID_10_)}.st19{fill:url(#SVGID_11_)}.st20{fill:url(#SVGID_12_)}.st21{fill:url(#SVGID_13_)}.st22{fill:url(#SVGID_14_)}.st23{fill:url(#SVGID_15_)}.st24{fill:url(#SVGID_16_)}.st25{fill:url(#SVGID_17_)}.st26{fill:url(#SVGID_18_)}.st27{fill:url(#SVGID_19_)}.st28{fill:url(#SVGID_20_)}.st29{fill:url(#SVGID_21_)}.st30{fill:url(#SVGID_22_)}.st31{fill:url(#SVGID_23_)}.st32{fill:url(#SVGID_24_)}.st33{fill:url(#SVGID_25_)}.st34{fill:url(#SVGID_26_)}.st35{fill:url(#SVGID_27_)}.st36{fill:url(#SVGID_28_)}.st37{fill:url(#SVGID_29_)}.st38{fill:url(#SVGID_30_)}.st39{fill:url(#SVGID_31_)}.st40{fill:url(#SVGID_32_)}.st41{fill:url(#SVGID_33_)}.st42{fill:url(#SVGID_34_)}.st42,.st43,.st44{fill-rule:evenodd;clip-rule:evenodd}.st43{fill:url(#SVGID_35_)}.st44{fill:url(#SVGID_36_)}.st45{fill:url(#SVGID_37_)}.st46{fill:url(#SVGID_38_)}.st47{fill:url(#SVGID_39_)}.st48{fill:url(#SVGID_40_)}.st49{fill:url(#SVGID_41_)}.st49,.st50,.st51{fill-rule:evenodd;clip-rule:evenodd}.st50{fill:url(#SVGID_42_)}.st51{fill:url(#SVGID_43_)}.st52{fill:url(#SVGID_44_)}.st53{fill:url(#SVGID_45_)}.st54{fill:url(#SVGID_46_)}.st55{fill:url(#SVGID_47_)}.st56{fill-rule:evenodd;clip-rule:evenodd;fill:url(#SVGID_48_)}.st57{fill:#020202}.st58,.st59{fill-rule:evenodd;clip-rule:evenodd;fill:url(#SVGID_49_)}.st59{fill:url(#SVGID_50_)}.st60{fill:url(#SVGID_51_)}.st61{fill:url(#SVGID_52_)}.st62{fill:url(#SVGID_53_)}.st63{fill:url(#SVGID_54_)}.st64{fill-rule:evenodd;clip-rule:evenodd;fill:url(#SVGID_55_)}.st65{fill:#0080ff}.st66{fill-rule:evenodd;clip-rule:evenodd;fill:url(#SVGID_56_)}.st67{fill:none}.dmst68{fill-rule:evenodd;clip-rule:evenodd}.dmst68,.dmst69,.st70{fill:#757a80}.st70,.st71{fill-rule:evenodd;clip-rule:evenodd}.st71{fill:#00a4ff}</style><circle class="dmst68" cx="275.5" cy="948.5" r="2.5"/><circle class="dmst68" cx="290.5" cy="973.5" r="2.5"/><path class="dmst69" d="M280 949h9.8l6.9 12-6.7 12c.6.2 1.5-.5 2 0l7-12-8-14h-11v2zm6 24h-9.8l-6.9-12 6.7-12c-.6-.2-1.5.5-2 0l-7 12 8 14h11v-2z"/><path class="dmst69" d="M279.1 955.7c1.3 0 3.6.8 6 3.2 1.4 1.4 2.5 3.1 3 4.7.3 1.1.3 2-.1 2.4-.3.3-.7.3-1.1.3-1.3 0-3.6-.8-6-3.2-1.4-1.4-2.5-3.1-3-4.7-.3-1.1-.3-2 .1-2.4.3-.2.8-.3 1.1-.3m0-2c-1 0-1.9.3-2.5.9-2 2-.7 6.4 2.8 9.9 2.4 2.4 5.2 3.7 7.4 3.7 1 0 1.9-.3 2.5-.9 2-2 .7-6.4-2.8-9.9-2.4-2.3-5.2-3.7-7.4-3.7z"/><path class="dmst69" d="M286.9 955.7c.3 0 .8.1 1.1.3.4.4.4 1.3.1 2.4-.4 1.5-1.5 3.2-3 4.7-2.3 2.3-4.7 3.2-6 3.2-.3 0-.8-.1-1.1-.3-.4-.4-.4-1.3-.1-2.4.4-1.5 1.5-3.2 3-4.7 2.3-2.4 4.7-3.2 6-3.2m0-2c-2.2 0-5 1.4-7.4 3.7-3.5 3.5-4.8 7.9-2.8 9.9.6.6 1.5.9 2.5.9 2.2 0 5-1.4 7.4-3.7 3.5-3.5 4.8-7.9 2.8-9.9-.7-.6-1.5-.9-2.5-.9z"/><circle class="dmst69" cx="283" cy="961" r="2"/></svg><svg id="prod-safe" width="34" height="34" viewBox="-1 -1 34 34" x="430" y="68"><style>.dnst0{fill:#757a80}</style><g id="dnXMLID_11_"><g id="dnXMLID_65_"><path id="dnXMLID_66_" class="dnst0" d="M13 21h8v-8h-1v-1c0-2.2-1.8-4-4-4s-4 1.8-4 4v1h-1v8h2zm0-8h1v-1c0-1.1.9-2 2-2s2 .9 2 2v1h1-6zm0 2h6v4h-6v-4zM3 2v15.2S3.1 28 16 31c12.9-3 13-13.8 13-13.8V2H3zm24 15.2s0 2.3-1.4 4.8c-1.8 3.4-5.1 5.7-9.6 6.9C5.3 26.2 5 17.6 5 17.2V4h22v13.2z"/></g></g></svg><svg width="34" height="34" viewBox="-1 -1 34 34" id="prod-storage" x="430" y="102"><defs><style>.docls-1{fill:#fff}.docls-2{fill:#757a80}</style></defs><title>Icons</title><path class="docls-1" d="M-166-20h894v603h-894z" id="do图层_2" data-name="图层 2"/><g id="do图层_1" data-name="图层 1"><path class="docls-2" d="M9 12v8l7 4 7-4v-8l-7-4zm6 9.13l-4-2.29v-3.7l4 2.29zm6-2.29l-4 2.29v-3.7l4-2.29zm-5-3.14L11.28 13 16 10.3l4.72 2.7zm12 7.14L16 29.7 4 22.84V9.16L16 2.3l12 6.86L30 8 16 0 2 8v16l14 8 14-8V12l-2 1.14z" id="do_编组_" data-name="&amp;lt;编组&amp;gt;"/></g></svg><svg id="prod-video" width="34" height="34" viewBox="-1 -1 34 34" x="430" y="136"><style>.dpst0{fill:#757a80}</style><g id="dpXMLID_2_"><g id="dpXMLID_61_"><path id="dpXMLID_62_" class="dpst0" d="M26 13.2v-.1c0-5.5-4.5-10-10-10C10.5 3 6 7.5 6 13v.1c-3.4.7-6 3.7-6 7.4 0 4 3.1 7.2 7 7.5h18c3.9-.3 7-3.5 7-7.5 0-3.6-2.6-6.7-6-7.3zM24.9 26H7.1C4.3 25.8 2 23.4 2 20.5c0-2.6 1.9-4.9 4.4-5.4l1.6-.3V13c0-4.4 3.6-8 8-8s8 3.6 8 8v1.9l1.6.3c2.6.5 4.4 2.8 4.4 5.4 0 2.8-2.3 5.2-5.1 5.4zM13.8 13c-.1-.1-.2-.1-.3-.1-.3 0-.5.2-.5.5v8.2c0 .3.2.5.5.5.1 0 .2 0 .3-.1l6.5-4.1c.3-.2.3-.7 0-.9l-6.5-4zm1.2 5.9v-2.8l2.2 1.4-2.2 1.4z"/></g></g></svg><svg width="34" height="34" viewBox="-1 -1 34 34" id="prod-voice" x="430" y="170"><defs><style>.dqcls-1{fill:#fff}.dqcls-2{fill:#757a80;fill-rule:evenodd}</style></defs><title>Icons</title><path class="dqcls-1" d="M-582-20h894v603h-894z" id="dq图层_2" data-name="图层 2"/><g id="dq图层_1" data-name="图层 1"><path class="dqcls-2" d="M23 18v-4h-2v4zM4.72 6H28v15h2V4H4.72a2 2 0 1 0 0 2zM20 21v-9h-2v3h-1v-5h-2v5h-1v-3h-2v3h-1v-1H9v4h2v-1h1v4h2v-4h1v5h2v-5h1v4zm9 4a2 2 0 0 0-1.72 1H4V11H2v17h25.28A2 2 0 1 0 29 25z" id="dq_编组_" data-name="&amp;lt;编组&amp;gt;"/></g></svg><svg id="question" width="18" height="18" viewBox="-1 -1 18 18" x="354" y="430"><style>.drst0{fill-rule:evenodd;clip-rule:evenodd;fill:#999}</style><g id="drXMLID_57_"><path id="drXMLID_58_" class="drst0" d="M7 11h1V9H7v2zm1-7C6.3 4 5 5.3 5 7h1c0-1.1.9-2 2-2s2 .9 2 2-.9 2-2 2v1c1.7 0 3-1.3 3-3S9.7 4 8 4zm0-4C3.6 0 0 3.6 0 8s3.6 8 8 8 8-3.6 8-8-3.6-8-8-8zm0 15c-3.9 0-7-3.1-7-7s3.1-7 7-7 7 3.1 7 7-3.1 7-7 7zm-1-2h1v-1H7v1z"/></g></svg><svg id="quick" width="18" height="18" viewBox="-1 -1 18 18" x="372" y="430"><style>.dsst0{fill-rule:evenodd;clip-rule:evenodd;fill:#999}</style><g id="dsXMLID_54_"><path id="dsXMLID_55_" class="dsst0" d="M7.9 13.8h-.2L0 9.9v.9L7.8 15l7.2-4V9.8l-7.1 4zm7-8.7V3.8L7.8 0 .1 3.8v1.1l7.7 4.2 7.1-4zM1.1 4.4l6.6-3.3L14 4.4 7.7 7.9 1.1 4.4zm6.5 6.4L.1 6.7v1.2L7.8 12 15 8V6.8l-7.1 4h-.3zm7.3-4z"/></g></svg><svg version="1" width="34" height="34" viewBox="-8 8 34 34" id="quyu" x="430" y="204"><path fill="#757A80" d="M17.1 28c0 1.1-.9 2-2 2-.2 0-.4 0-.6-.1l-3.4 2v.1c0 1.1-.9 2-2 2s-2-.9-2-2v-.1l-3.4-2c-.2.1-.4.1-.6.1-1.1 0-2-.9-2-2 0-.7.4-1.4 1-1.7v-3.6c-.6-.3-1-1-1-1.7 0-1.1.9-2 2-2 .6 0 1.1.2 1.4.6l2.6-1.5V18c0-1.1.9-2 2-2s2 .9 2 2v.1l2.6 1.5c.4-.4.9-.6 1.4-.6 1.1 0 2 .9 2 2 0 .7-.4 1.4-1 1.7v3.5c.6.4 1 1.1 1 1.8zm-13-4.8v3.1c.2.1.4.3.5.5l2.6-1.7-3.1-1.9zm4-3.5s-.1 0-.1-.1l-3 1.8 3.1 1.8v-3.5zm0 7.2l-2.8 1.8L8 30.3s.1 0 .1-.1v-3.3zm6-.6V23L11 25l2.7 1.6c.1-.1.2-.2.4-.3zm-4 4s.1 0 .1.1l2.9-1.8-3-1.8v3.5zm.1-10.6s-.1 0-.1.1v3.5l2.9-1.9-2.8-1.7zM21.9 23c-1-6.2-6.3-11-12.8-11-7.2 0-13 5.8-13 13s5.8 13 13 13c6.5 0 11.9-4.8 12.8-11h2c-1 7.3-7.2 13-14.9 13C.7 40-6 33.3-6 25S.7 10 9 10c7.6 0 13.9 5.7 14.9 13h-2z"/></svg><svg id="recharge" viewBox="-1 -1 66 66" width="66" height="66" x="330" y="132"><style>.dust0{fill-rule:evenodd;clip-rule:evenodd;fill:#757a80}</style><g id="duXMLID_2_"><g id="duXMLID_60_"><path id="duXMLID_61_" class="dust0" d="M32 56C18.7 56 8 45.3 8 32S18.7 8 32 8c10.1 0 18.7 6.2 22.2 15h2.1C52.7 13.1 43.2 6 32 6 17.6 6 6 17.6 6 32s11.6 26 26 26c11.2 0 20.7-7.1 24.4-17h-2.1C50.7 49.8 42.1 56 32 56zm25-25v-4h-2v4h-4v2h4v4h2v-4h4v-2h-4zm-17 4c0-2.2-1.8-4-4-4h-6c-1.1 0-2-.9-2-2s.9-2 2-2h9v-2h-5v-3h-2v3h-2c-2.2 0-4 1.8-4 4s1.8 4 4 4h6c1.1 0 2 .9 2 2s-.9 2-2 2h-9v2h5v3h2v-3h2c2.2 0 4-1.8 4-4z"/></g></g></svg><svg id="recharge-hover" viewBox="-1 -1 66 66" width="66" height="66" x="330" y="198"><style>.dvst0{fill:url(#dvXMLID_3_)}</style><g id="dvXMLID_2_"><g id="dvXMLID_60_"><linearGradient id="dvXMLID_3_" gradientUnits="userSpaceOnUse" x1="44.959" y1="54.532" x2="18.952" y2="9.486"><stop offset="0" stop-color="#0063ff"/><stop offset="1" stop-color="#00c8de"/></linearGradient><path id="dvXMLID_61_" class="dvst0" d="M32 56C18.7 56 8 45.3 8 32S18.7 8 32 8c10.1 0 18.7 6.2 22.2 15h2.1C52.7 13.1 43.2 6 32 6 17.6 6 6 17.6 6 32s11.6 26 26 26c11.2 0 20.7-7.1 24.4-17h-2.1C50.7 49.8 42.1 56 32 56zm25-25v-4h-2v4h-4v2h4v4h2v-4h4v-2h-4zm-17 4c0-2.2-1.8-4-4-4h-6c-1.1 0-2-.9-2-2s.9-2 2-2h9v-2h-5v-3h-2v3h-2c-2.2 0-4 1.8-4 4s1.8 4 4 4h6c1.1 0 2 .9 2 2s-.9 2-2 2h-9v2h5v3h2v-3h2c2.2 0 4-1.8 4-4z"/></g></g></svg><svg id="renewal" viewBox="-1 -1 66 66" width="66" height="66" x="330" y="264"><style>.dwst0{fill-rule:evenodd;clip-rule:evenodd;fill:#757a80}</style><g id="dwXMLID_76_"><path id="dwXMLID_77_" class="dwst0" d="M11 16.7c-6.7 9.1-6.6 21.6 0 30.7l1.4-1.4c-5.9-8.3-5.9-19.5 0-27.8L11 16.7zm34.9-4.3l1.4-1.4c-9.1-6.7-21.6-6.7-30.7 0l1.5 1.5c8.3-6 19.5-6 27.8-.1zM18.1 51.6L16.7 53c9.1 6.7 21.6 6.7 30.7 0l-1.5-1.5c-8.3 6-19.5 6-27.8.1zM53 16.7l-1.4 1.4c5.9 8.3 5.9 19.5 0 27.8l1.5 1.5c6.6-9.2 6.5-21.6-.1-30.7zM21 26v12l11 6 11-6V26l-11-6-11 6zm10 15.5l-8-4.4v-8l8 4.4v8zm10-4.4l-8 4.4v-8l8-4.4v8zM32 32l-9.2-5 9.2-5 9.2 5-9.2 5z"/></g></svg><svg id="renewal-hover" viewBox="-1 -1 66 66" width="66" height="66" y="330"><style>.dxst0{fill:url(#dxXMLID_2_)}</style><g id="dxXMLID_76_"><linearGradient id="dxXMLID_2_" gradientUnits="userSpaceOnUse" x1="45.001" y1="54.568" x2="18.956" y2="9.456"><stop offset="0" stop-color="#0063ff"/><stop offset="1" stop-color="#00c8de"/></linearGradient><path id="dxXMLID_77_" class="dxst0" d="M11 16.7c-6.7 9.1-6.6 21.6 0 30.7l1.4-1.4c-5.9-8.3-5.9-19.5 0-27.8L11 16.7zm34.9-4.3l1.4-1.4c-9.1-6.7-21.6-6.7-30.7 0l1.5 1.5c8.3-6 19.5-6 27.8-.1zM18.1 51.6L16.7 53c9.1 6.7 21.6 6.7 30.7 0l-1.5-1.5c-8.3 6-19.5 6-27.8.1zM53 16.7l-1.4 1.4c5.9 8.3 5.9 19.5 0 27.8l1.5 1.5c6.6-9.2 6.5-21.6-.1-30.7zM21 26v12l11 6 11-6V26l-11-6-11 6zm10 15.5l-8-4.4v-8l8 4.4v8zm10-4.4l-8 4.4v-8l8-4.4v8zM32 32l-9.2-5 9.2-5 9.2 5-9.2 5z"/></g></svg><svg id="retrieve-acc" width="66" height="66" viewBox="11 -25 66 66" x="66" y="330"><style>.dyst0{fill:#75797f}</style><title>找回账号64-05</title><path class="dyst0" d="M44-16c3.6 0 7.1.8 10.3 2.3l-2 2 7.1 1.4-1.4-7-2.1 2.1C52.2-17 48.1-18 44-18 29.7-18 18-6.4 18 7.9V8c0 4.1 1 8.2 2.9 11.8l1.5-1.5C20.8 15.1 20 11.6 20 8c0-13.2 10.8-24 24-24zM67.1-3.8l-1.5 1.5C67.2.9 68 4.4 68 8c0 13.2-10.8 24-24 24-3.6 0-7.1-.8-10.3-2.3l2-2-7.1-1.4 1.4 7.1 2.2-2.2C35.9 33.1 39.9 34 44 34c14.3 0 26-11.6 26-25.9V8c0-4.1-1-8.2-2.9-11.8z"/><path class="dyst0" d="M32 14.8V20h24v-5.2c0-2.7-2.1-4.8-4.8-4.8H36.8c-2.7 0-4.8 2.2-4.8 4.8zM51.2 12c1.5 0 2.8 1.3 2.8 2.8V18H34v-3.2c0-1.5 1.3-2.8 2.8-2.8h14.4zM50 2c0-3.3-2.7-6-6-6s-6 2.7-6 6 2.7 6 6 6 6-2.7 6-6zM40 2c0-2.2 1.8-4 4-4s4 1.8 4 4-1.8 4-4 4-4-1.8-4-4z"/></svg><svg id="retrieve-acc-hover" width="66" height="66" viewBox="11 -25 66 66" x="132" y="330"><style>.dzst0{fill:url(#dzSVGID_1_)}.dzst1{fill:url(#dzSVGID_2_)}.dzst2{fill:url(#dzSVGID_3_)}.dzst3{fill:url(#dzSVGID_4_)}.dzst4{fill:url(#dzSVGID_5_)}.dzst5{fill:url(#dzSVGID_6_)}.dzst6{fill:url(#dzSVGID_7_)}.dzst7{fill:url(#dzSVGID_8_)}</style><title>找回账号64-05</title><linearGradient id="dzSVGID_1_" gradientUnits="userSpaceOnUse" x1="30.509" y1="30.236" x2="42.845" y2="8.87" gradientTransform="matrix(1 0 0 -1 0 16)"><stop offset="0" stop-color="#00c7de"/><stop offset="1" stop-color="#0283f5"/></linearGradient><path class="dzst0" d="M44-16c3.6 0 7.1.8 10.3 2.3l-2 2 7.1 1.4-1.4-7-2.1 2.1C52.2-17 48.1-18 44-18 29.7-18 18-6.4 18 7.9V8c0 4.1 1 8.2 2.9 11.8l1.5-1.5C20.8 15.1 20 11.6 20 8c0-13.2 10.8-24 24-24z"/><linearGradient id="dzSVGID_2_" gradientUnits="userSpaceOnUse" x1="45.133" y1="7.118" x2="57.469" y2="-14.248" gradientTransform="matrix(1 0 0 -1 0 16)"><stop offset="0" stop-color="#00c7de"/><stop offset="1" stop-color="#0283f5"/></linearGradient><path class="dzst1" d="M67.1-3.8l-1.5 1.5C67.2.9 68 4.4 68 8c0 13.2-10.8 24-24 24-3.6 0-7.1-.8-10.3-2.3l2-2-7.1-1.4 1.4 7.1 2.2-2.2C35.9 33.1 39.9 34 44 34c14.3 0 26-11.6 26-25.9V8c0-4.1-1-8.2-2.9-11.8z"/><linearGradient id="dzSVGID_3_" gradientUnits="userSpaceOnUse" x1="38.961" y1="7.992" x2="48.413" y2="-8.38" gradientTransform="matrix(1 0 0 -1 0 16)"><stop offset="0" stop-color="#00c7de"/><stop offset="1" stop-color="#0283f5"/></linearGradient><path class="dzst2" d="M32 14.8V20h24v-5.2c0-2.7-2.1-4.8-4.8-4.8H36.8c-2.7 0-4.8 2.2-4.8 4.8zM51.2 12c1.5 0 2.8 1.3 2.8 2.8V18H34v-3.2c0-1.5 1.3-2.8 2.8-2.8h14.4z"/><linearGradient id="dzSVGID_4_" gradientUnits="userSpaceOnUse" x1="40.995" y1="19.205" x2="46.99" y2="8.82" gradientTransform="matrix(1 0 0 -1 0 16)"><stop offset="0" stop-color="#00c7de"/><stop offset="1" stop-color="#0283f5"/></linearGradient><path class="dzst3" d="M50 2c0-3.3-2.7-6-6-6s-6 2.7-6 6 2.7 6 6 6 6-2.7 6-6zM40 2c0-2.2 1.8-4 4-4s4 1.8 4 4-1.8 4-4 4-4-1.8-4-4z"/><linearGradient id="dzSVGID_5_" gradientUnits="userSpaceOnUse" x1="30.509" y1="30.236" x2="56.531" y2="-14.834" gradientTransform="matrix(1 0 0 -1 0 16)"><stop offset="0" stop-color="#00c7de"/><stop offset="1" stop-color="#0283f5"/></linearGradient><path class="dzst4" d="M44-16c3.6 0 7.1.8 10.3 2.3l-2 2 7.1 1.4-1.4-7-2.1 2.1C52.2-17 48.1-18 44-18 29.7-18 18-6.4 18 7.9V8c0 4.1 1 8.2 2.9 11.8l1.5-1.5C20.8 15.1 20 11.6 20 8c0-13.2 10.8-24 24-24z"/><linearGradient id="dzSVGID_6_" gradientUnits="userSpaceOnUse" x1="31.459" y1="30.803" x2="57.48" y2="-14.267" gradientTransform="matrix(1 0 0 -1 0 16)"><stop offset="0" stop-color="#00c7de"/><stop offset="1" stop-color="#0283f5"/></linearGradient><path class="dzst5" d="M67.1-3.8l-1.5 1.5C67.2.9 68 4.4 68 8c0 13.2-10.8 24-24 24-3.6 0-7.1-.8-10.3-2.3l2-2-7.1-1.4 1.4 7.1 2.2-2.2C35.9 33.1 39.9 34 44 34c14.3 0 26-11.6 26-25.9V8c0-4.1-1-8.2-2.9-11.8z"/><linearGradient id="dzSVGID_7_" gradientUnits="userSpaceOnUse" x1="27.208" y1="28.349" x2="53.229" y2="-16.721" gradientTransform="matrix(1 0 0 -1 0 16)"><stop offset="0" stop-color="#00c7de"/><stop offset="1" stop-color="#0283f5"/></linearGradient><path class="dzst6" d="M32 14.8V20h24v-5.2c0-2.7-2.1-4.8-4.8-4.8H36.8c-2.7 0-4.8 2.2-4.8 4.8zM51.2 12c1.5 0 2.8 1.3 2.8 2.8V18H34v-3.2c0-1.5 1.3-2.8 2.8-2.8h14.4z"/><linearGradient id="dzSVGID_8_" gradientUnits="userSpaceOnUse" x1="33.589" y1="32.033" x2="59.61" y2="-13.037" gradientTransform="matrix(1 0 0 -1 0 16)"><stop offset="0" stop-color="#00c7de"/><stop offset="1" stop-color="#0283f5"/></linearGradient><path class="dzst7" d="M50 2c0-3.3-2.7-6-6-6s-6 2.7-6 6 2.7 6 6 6 6-2.7 6-6zM40 2c0-2.2 1.8-4 4-4s4 1.8 4 4-1.8 4-4 4-4-1.8-4-4z"/></svg><svg id="retrieve-password" viewBox="-1 -1 66 66" width="66" height="66" x="198" y="330"><style>.east0{fill-rule:evenodd;clip-rule:evenodd;fill:#757a80}</style><g id="eaXMLID_53_"><path id="eaXMLID_54_" class="east0" d="M32 8c3.7 0 7.2.8 10.3 2.3l-2 2 7.1 1.4-1.4-7-2.1 2.1A26.4 26.4 0 0 0 32 6C17.6 6 6 17.6 6 32c0 4.3 1 8.3 2.9 11.8l1.5-1.5C8.8 39.2 8 35.7 8 32 8 18.8 18.8 8 32 8zm1 36V32.9c2.8-.5 5-2.9 5-5.9 0-3.3-2.7-6-6-6s-6 2.7-6 6c0 3 2.2 5.4 5 5.9V35h-4l1 2h3v2h-3l1 2h2v3h2zm-5-17c0-2.2 1.8-4 4-4s4 1.8 4 4-1.8 4-4 4-4-1.8-4-4zm27.1-6.8l-1.5 1.5C55.2 24.8 56 28.3 56 32c0 13.2-10.8 24-24 24-3.7 0-7.2-.8-10.3-2.3l2-2-7.1-1.4 1.4 7.1 2.2-2.2C23.7 57 27.7 58 32 58c14.4 0 26-11.6 26-26 0-4.3-1-8.3-2.9-11.8z"/></g></svg><svg id="retrieve-password-hover" viewBox="-1 -1 66 66" width="66" height="66" x="264" y="330"><style>.ebst0{fill:url(#ebXMLID_2_)}</style><g id="ebXMLID_53_"><linearGradient id="ebXMLID_2_" gradientUnits="userSpaceOnUse" x1="45.011" y1="54.535" x2="18.989" y2="9.465"><stop offset="0" stop-color="#0063ff"/><stop offset="1" stop-color="#00c8de"/></linearGradient><path id="ebXMLID_54_" class="ebst0" d="M32 8c3.7 0 7.2.8 10.3 2.3l-2 2 7.1 1.4-1.4-7-2.1 2.1A26.4 26.4 0 0 0 32 6C17.6 6 6 17.6 6 32c0 4.3 1 8.3 2.9 11.8l1.5-1.5C8.8 39.2 8 35.7 8 32 8 18.8 18.8 8 32 8zm1 36V32.9c2.8-.5 5-2.9 5-5.9 0-3.3-2.7-6-6-6s-6 2.7-6 6c0 3 2.2 5.4 5 5.9V35h-4l1 2h3v2h-3l1 2h2v3h2zm-5-17c0-2.2 1.8-4 4-4s4 1.8 4 4-1.8 4-4 4-4-1.8-4-4zm27.1-6.8l-1.5 1.5C55.2 24.8 56 28.3 56 32c0 13.2-10.8 24-24 24-3.7 0-7.2-.8-10.3-2.3l2-2-7.1-1.4 1.4 7.1 2.2-2.2C23.7 57 27.7 58 32 58c14.4 0 26-11.6 26-26 0-4.3-1-8.3-2.9-11.8z"/></g></svg><svg width="34" height="34" viewBox="-1 -1 34 34" id="right" x="430" y="374"><title>Page 1 Copy 3</title><defs><path id="eca" d="M0 16v16h32V0H0z"/></defs><g fill="none" fill-rule="evenodd"><mask id="ecb" fill="#fff"><use xlink:href="#eca"/></mask><path d="M16 30C8.268 30 2 23.732 2 16S8.268 2 16 2s14 6.268 14 14-6.268 14-14 14m0-30C7.163 0 0 7.163 0 16c0 8.836 7.163 16 16 16s16-7.164 16-16c0-8.837-7.163-16-16-16" fill="#0ABF5B" mask="url(#ecb)"/><path fill="#0ABF5B" d="M13.879 19.172l-4.243-4.243-1.414 1.414 4.243 4.243L13.879 22l1.414-1.415 8.485-8.485-1.414-1.414z"/></g></svg><svg id="shopping-cart" width="18" height="18" viewBox="-1 -1 18 18" x="464" y="108"><style>.edst0{fill:#999}</style><g id="edXMLID_2_"><g id="edXMLID_57_"><path id="edXMLID_58_" class="edst0" d="M11.5 12c-.8 0-1.5.7-1.5 1.5s.7 1.5 1.5 1.5 1.5-.7 1.5-1.5c0-.9-.7-1.5-1.5-1.5zm0 2c-.3 0-.5-.2-.5-.5s.2-.5.5-.5.5.2.5.5-.2.5-.5.5zm-6-2c-.8 0-1.5.6-1.5 1.5 0 .8.7 1.5 1.5 1.5S7 14.3 7 13.5c0-.9-.7-1.5-1.5-1.5zm0 2c-.3 0-.5-.2-.5-.5s.2-.5.5-.5.5.2.5.5-.2.5-.5.5zm.8-11l-.7 1 8.1.8-1.5 5.2H4.8L3 3.7C2.8 2.8 1.9 1.4 0 1v1c1.6.4 2 1.9 2 1.9l2 7h9l2-7L6.3 3z"/></g></g></svg><svg id="star" width="18" height="18" viewBox="-1 -1 18 18" x="464" y="126"><style>.eest0{fill:#999}</style><path id="eeXMLID_3_" class="eest0" d="M8 2.7l1.6 3.2.2.5.5.1 3.5.5-2.5 2.4-.4.4.1.5.6 3.5-3.2-1.6-.4-.4-.5.2-3.2 1.6.7-3.3.1-.5-.4-.4-2.5-2.5 3.5-.5.5-.1.2-.5L8 2.7M8 .5l-2.5 5-5.5.7 4 3.9-.9 5.4L8 13l4.9 2.6-.9-5.5 4-3.9-5.5-.8L8 .5z"/></svg><svg id="star-active" width="18" height="18" viewBox="-1 -1 18 18" x="464" y="144"><style>.efst0{fill:#ff7f00}</style><path id="efXMLID_3_" class="efst0" d="M8 .5l2.5 5 5.5.7-4 3.9.9 5.4L8 13l-4.9 2.6.9-5.5-4-3.9 5.5-.8L8 .5z"/></svg><svg id="sublinks-arrow" width="14" height="8" viewBox="-1 -1 14 8" x="464" y="284"><style>.egst0{fill:#333}</style><g id="egXMLID_2_"><g id="egXMLID_22_"><path id="egXMLID_23_" class="egst0" d="M10.6 0L6 4.6 1.4 0 .7.7 6 6 11.3.7z"/></g></g></svg><svg id="tag-hot" width="29" height="15" viewBox="-1 -1 29 15" x="430" y="408"><style>.ehst0{fill:#ff7800}</style><path id="ehXMLID_1_" class="ehst0" d="M26 1v10.5c0 .3-.2.5-.5.5h-24c-.3 0-.5-.2-.5-.5v-10c0-.3.2-.5.5-.5H26m0-1H1C.4 0 0 .4 0 1v11c0 .6.4 1 1 1h25c.6 0 1-.4 1-1V1c0-.6-.4-1-1-1z"/><path id="ehXMLID_3_" class="ehst0" d="M5 3h1v7H5z"/><path id="ehXMLID_12_" class="ehst0" d="M5 6h5v1H5z"/><path id="ehXMLID_13_" class="ehst0" d="M9 3h1v7H9z"/><path id="ehXMLID_14_" class="ehst0" d="M11 3h1v7h-1z"/><path id="ehXMLID_15_" class="ehst0" d="M15 3h1v7h-1z"/><path id="ehXMLID_16_" class="ehst0" d="M11 9h5v1h-5z"/><path id="ehXMLID_17_" class="ehst0" d="M11 3h5v1h-5z"/><path id="ehXMLID_18_" class="ehst0" d="M17 3h5v1h-5z"/><path id="ehXMLID_19_" class="ehst0" d="M19 3h1v7h-1z"/></svg><svg id="toolbar" width="18" height="18" viewBox="-1 -1 18 18" x="464" y="198"><style>.eist0{fill:#999}</style><g id="eiXMLID_64_"><path id="eiXMLID_65_" class="eist0" d="M1 1h4V0H0v5h1V1zm0 10H0v5h5v-1H1v-4zm14 4h-4v1h5v-5h-1v4zM11 0v1h4v4h1V0h-5zm2.7 5.3h-1c0 .5-.2 1-.6 1.4-.8.8-2 .8-2.8 0-.8-.8-.8-2 0-2.8.4-.4.9-.6 1.4-.6v-1c-.8 0-1.5.3-2.1.9-1.1 1.1-1.2 2.7-.4 3.9L6 9.3c-.8-.5-1.8-.4-2.4.3-.8.8-.8 2 0 2.8.8.8 2 .8 2.8 0 .7-.7.8-1.7.3-2.4l2.2-2.2c1.2.8 2.8.7 3.9-.3.6-.6.9-1.4.9-2.2zm-8 6.4c-.4.4-1 .4-1.4 0-.4-.4-.4-1 0-1.4.4-.4 1-.4 1.4 0 .4.4.4 1 0 1.4z"/></g></svg><svg id="toolbar-copy" width="18" height="18" viewBox="-1 -1 18 18" x="464" y="216"><style>.ejst0{fill-rule:evenodd;clip-rule:evenodd;fill:#666}</style><path class="ejst0" d="M4.5 15.5v-12h10v12h-10zm8-10h-6v8h6v-8zm-3-3h-6v10h-2V.5h10v2h-2z"/></svg><svg width="18" height="18" viewBox="-1 -1 18 18" id="toolbar-copy-#00a4ff" x="464" y="234"><style>.ekst0{fill-rule:evenodd;clip-rule:evenodd;fill:#00a4ff}</style><path class="ekst0" d="M4.5 15.5v-12h10v12h-10zm8-10h-6v8h6v-8zm-3-3h-6v10h-2V.5h10v2h-2z"/></svg><svg id="toolbar-other" width="18" height="18" viewBox="-1 -1 18 18" x="464" y="162"><style>.elst0{fill-rule:evenodd;clip-rule:evenodd;fill:#666}</style><path class="elst0" d="M12 9V7h2v2h-2zM7 7h2v2H7V7zM2 7h2v2H2V7z"/></svg><svg width="18" height="18" viewBox="-1 -1 18 18" id="toolbar-other-#00a4ff" x="264" y="430"><style>.emst0{fill-rule:evenodd;clip-rule:evenodd;fill:#00a4ff}</style><path class="emst0" d="M12 9V7h2v2h-2zM7 7h2v2H7V7zM2 7h2v2H2V7z"/></svg><svg id="wechat" width="66" height="66" viewBox="-1 -1 66 66" x="132" y="264"><style>.enst0{fill:#f0f1f2}</style><g id="enXMLID_24_"><path id="enXMLID_29_" class="enst0" d="M32 0C14.3 0 0 14.3 0 32s14.3 32 32 32 32-14.3 32-32S49.7 0 32 0zm0 62C15.5 62 2 48.5 2 32S15.5 2 32 2s30 13.5 30 30-13.5 30-30 30z"/></g><g id="enXMLID_17_"><path id="enXMLID_30_" class="enst0" d="M48 34c0-4.6-4.2-8.3-9.5-8.5-1.5-4.1-5.8-7-11-7-6.4 0-11.5 4.5-11.5 10 0 2.8 1.3 5.3 3.4 7.1L18 40.5l5.9-2.5c1.1.3 2.4.5 3.6.5.7 0 1.3-.1 1.9-.1-.4-.6-.7-1.2-1-1.9h-.9c-1 0-2.1-.1-3.1-.4l-.7-.2-.7.3-2 .9.2-.9.4-1.2-1-.8C19 32.6 18 30.6 18 28.5c0-4.4 4.3-8 9.5-8 4 0 7.5 2.1 8.9 5.1-4.8.7-8.4 4.2-8.4 8.4 0 .9.2 1.7.4 2.4s.6 1.3 1 1.9c1.7 2.5 4.9 4.2 8.6 4.2.8 0 1.6-.1 2.3-.2l5.7 3.2-1.5-5.1c2.2-1.5 3.5-3.8 3.5-6.4zm-4.6 4.8l-1.1.8.4 1.3.1.4-1.4-.8-.7-.4-.7.2c-.7.1-1.3.2-1.9.2-4.4 0-8-2.9-8-6.5s3.6-6.5 8-6.5 8 2.9 8 6.5c-.1 1.8-1.1 3.6-2.7 4.8z"/><circle id="enXMLID_31_" class="enst0" cx="35" cy="31.5" r="1"/><circle id="enXMLID_32_" class="enst0" cx="41" cy="31.5" r="1"/><circle id="enXMLID_33_" class="enst0" cx="23.5" cy="25" r="1.5"/><circle id="enXMLID_34_" class="enst0" cx="31.5" cy="25" r="1.5"/></g><path id="enXMLID_14_" class="enst0" d="M105 16h32v32h-32z"/></svg><svg id="withdraw" viewBox="-1 -1 66 66" width="66" height="66" x="66" y="264"><style>.eost0{fill:#757a80}</style><g id="eoXMLID_2_"><g id="eoXMLID_93_"><path id="eoXMLID_94_" class="eost0" d="M49 17v4h2v-6h-9l-2 2h9zM32 31v2h-1.2c-2.1 0-3.8 1.6-3.8 3.5s1.7 3.5 3.8 3.5h4.4c.9 0 1.6.7 1.6 1.5s-.7 1.5-1.6 1.5H28v2h4v2h2v-2h1.2c2.1 0 3.8-1.6 3.8-3.5S37.3 38 35.2 38h-4.4c-.9 0-1.6-.7-1.6-1.5s.7-1.5 1.6-1.5H38v-2h-4v-2h-2zm1-10l8-9v-2h-4V0H27v10h-4v2l8 9h2zm-5-9h1V2h6v10h3.2l-6 7h-.3l-6-7H28zM14 23c-1.7 0-3-1.3-3-3s1.3-3 3-3h10l-2-2h-8c-2.8 0-5 2.2-5 5v30h2V24c.8.6 1.9 1 3 1h39v28H14c-1.7 0-3-1.3-3-3H9c0 2.8 2.2 5 5 5h41V23H14z"/></g></g></svg><svg id="withdraw-hover" viewBox="-1 -1 66 66" width="66" height="66" x="66"><style>.epst0{fill:url(#epXMLID_3_)}</style><g id="epXMLID_2_"><g id="epXMLID_93_"><linearGradient id="epXMLID_3_" gradientUnits="userSpaceOnUse" x1="45.696" y1="60.372" x2="14.88" y2="6.998"><stop offset="0" stop-color="#0063ff"/><stop offset="1" stop-color="#00c8de"/></linearGradient><path id="epXMLID_94_" class="epst0" d="M49 17v4h2v-6h-9l-2 2h9zM32 31v2h-1.2c-2.1 0-3.8 1.6-3.8 3.5s1.7 3.5 3.8 3.5h4.4c.9 0 1.6.7 1.6 1.5s-.7 1.5-1.6 1.5H28v2h4v2h2v-2h1.2c2.1 0 3.8-1.6 3.8-3.5S37.3 38 35.2 38h-4.4c-.9 0-1.6-.7-1.6-1.5s.7-1.5 1.6-1.5H38v-2h-4v-2h-2zm1-10l8-9v-2h-4V0H27v10h-4v2l8 9h2zm-5-9h1V2h6v10h3.2l-6 7h-.3l-6-7H28zM14 23c-1.7 0-3-1.3-3-3s1.3-3 3-3h10l-2-2h-8c-2.8 0-5 2.2-5 5v30h2V24c.8.6 1.9 1 3 1h39v28H14c-1.7 0-3-1.3-3-3H9c0 2.8 2.2 5 5 5h41V23H14z"/></g></g></svg></svg>